<?xml version="1.0" encoding="UTF-8"?>
<!DOCTYPE svg PUBLIC "-//W3C//DTD SVG 1.1//EN" "http://www.w3.org/Graphics/SVG/1.1/DTD/svg11.dtd">
<!-- Creator: CorelDRAW 2019 (64-Bit Not for commercial use) -->
<svg xmlns="http://www.w3.org/2000/svg" xml:space="preserve" width="3.8504in" height="0.732303in" version="1.1" style="shape-rendering:geometricPrecision; text-rendering:geometricPrecision; image-rendering:optimizeQuality; fill-rule:evenodd; clip-rule:evenodd"
viewBox="0 0 3838.48 730.04"
 xmlns:xlink="http://www.w3.org/1999/xlink"
 xmlns:xodm="http://www.corel.com/coreldraw/odm/2003">
 <defs>
  <style type="text/css">
   <![CDATA[
    .fil1 {fill:black}
    .fil0 {fill:#2799D0}
   ]]>
  </style>
 </defs>
 <g id="Layer_x0020_1">
  <metadata id="CorelCorpID_0Corel-Layer"/>
  <g id="blue_robotics.eps">
   <path class="fil0" d="M378.6 0.3c206.41,11.47 363.53,181.01 351.38,389.89 -7.46,128.2 -93.47,254.78 -211.26,306.32 -4.07,1.78 -13.4,7.07 -16.5,3.81 -1.04,-1.1 -6.24,-11.36 -7.66,-13.95 -15.55,-28.62 -32.56,-63.9 -41.27,-95.22 -1.93,-6.95 -7.4,-27.34 -5.62,-33.25 0.46,-1.52 11.45,-5.8 14.28,-7.34 82.78,-44.92 126.83,-133.9 108.14,-227.56 -15.33,-76.81 -77.09,-141.9 -153.5,-159.33 -16.07,-61.26 -59.52,-109.61 -98.8,-157.29 -1.04,-2.32 3.26,-3.12 4.8,-3.29 10.13,-1.13 21.87,-2.28 31.68,-2.78 3.76,-0.2 7.96,-0.3 12.17,-0.3l0.4 0c4.07,0 8.13,0.1 11.76,0.3z"/>
   <path class="fil0" d="M0.22 353.01c11.32,-130.02 73.03,-243.15 189.62,-307.01 3.42,-1.87 18.38,-10.04 20.74,-10.43 0.73,-0.12 1.31,-0.16 1.84,0.45 14.85,22.91 28.48,46.91 38.47,72.4 7.59,19.36 14.89,43.58 16.78,64.3 0.27,3.03 0.97,7.12 -1.24,9.34 -30.68,17.23 -57.44,41.18 -76.25,71.05 -32.4,51.46 -40.94,112.85 -24.11,171.22 18.63,64.65 69.16,116.6 132.65,138.31 4.42,26.62 16.74,52.71 30.13,75.95 18.51,32.14 41.88,62.59 67.32,89.44 -2.91,1.42 -6.81,0.38 -10.11,0.71 -1.2,0.12 -1.93,1.3 -2.05,1.31l-35.13 0 -38.37 -4.2c-166.46,-25.37 -298.31,-166.79 -307.69,-335.56l-2.59 -12.95c0.38,-6.06 -0.22,-12.52 -0.22,-18.73 0,-1.9 0.06,-3.77 0.22,-5.6z"/>
   <path class="fil1" d="M3838.09 462.47c0.57,4.4 0.48,14.44 0,18.92 -3.1,27.64 -32.54,47.95 -58.9,49.89l-171.54 0.14c-18.78,-0.6 -21.57,-26.59 -3.97,-31.06l172.78 -0.17c35.62,-4.49 39.22,-45.78 3.89,-54.99 -42.37,-3.25 -88.94,3.32 -130.8,-0.28 -71.03,-6.1 -78.07,-101.94 -6.39,-115.9 38.46,-7.5 89.53,2.17 129.45,-1.74 19.15,-1.24 25.76,22.65 9.12,30.88l-122.77 0.2c-37.76,0.92 -46.74,45.76 -7.94,55.39 41.5,2.32 85.81,-2.79 127,0.02 26.1,1.78 56.48,20.8 60.08,48.71z"/>
   <path class="fil0" d="M862.38 500.3l191.22 0c0.42,0 6.51,-1.19 7.98,-1.48 15.78,-3.08 32.89,-14.24 34.62,-31.6 2.63,-26.38 -1.53,-57.71 -0.63,-84.56 -3.14,-11.27 -11.46,-19.25 -21.87,-24.07 -1.84,-0.86 -10.87,-4.23 -11.99,-4.23l-199.33 0 0 145.95zm0 -177.03l170.95 0c4,0 18.69,-7.22 22.33,-10.1 22.67,-17.94 15.35,-46.23 -9.92,-56.36 -2.29,-0.92 -10.72,-3.81 -12.41,-3.81l-170.95 0 0 70.27zm-20.64 -101.05l190.27 -0.33c46.86,3.24 89.17,50.66 61.21,96.39 -1.52,2.49 -8.09,9.97 -7.86,11.05 6.44,4.53 13.97,7.35 20.17,12.28 13.49,10.71 21.75,25.81 23.1,43.12 1.77,22.74 1.6,59.65 0.04,82.52 -2.47,36.15 -33.3,57.92 -66.94,62.79l-220.33 0.02c-4.94,-0.16 -8.8,-3.83 -10.84,-8.07 -1.42,-95.62 -0.15,-191.55 -0.65,-287.29 0.88,-7.26 4.73,-11.2 11.84,-12.49z"/>
   <path class="fil1" d="M1882.66 521.25c-2.43,11.39 -27.34,13.51 -31.66,1.97 -1.17,-3.14 -1.31,-6.79 -2.15,-10.06l-0.04 -273.05c0.65,-8.44 3.24,-17.22 12.86,-18.23l220.37 -0.02c28.23,2.03 63.34,26.59 66.72,56.25 1.53,13.45 1.41,43.03 0.13,56.67 -2.38,25.41 -29.26,47.88 -52.68,54.08l-25.71 4.01c3.99,6.61 10.38,11.25 15.57,16.86 23.63,25.57 46.77,51.34 70.2,77.09 4.91,5.4 19.28,17.49 20.72,23.88 4.28,19.08 -16.08,26.81 -29.49,14.64 -2.66,-2.42 -3.84,-5.27 -6.02,-7.5 -39.87,-40.78 -77.19,-83.82 -116.92,-124.97 -32.93,-1.54 -66.27,-0.27 -99.35,-0.65 -5.84,-0.81 -12.03,-3.24 -13.53,-9.44 -2.7,-11.19 0.05,-21.1 12.29,-22.93l153.99 -0.07c13.6,-1.27 35.15,-13.1 37.05,-27.81 1.25,-9.62 1.36,-41.69 -0.22,-50.96 -2.16,-12.69 -17.69,-22.97 -29.35,-26.06 -1.3,-0.35 -8.41,-1.95 -8.87,-1.95l-193.92 0 0 268.25z"/>
   <path class="fil1" d="M2556.65 360.1c-10.17,1.44 -22.53,11.5 -23.9,22.05 2.02,29.86 -2.99,63.83 -0.11,93.18 1.21,12.38 14.49,22.47 26.35,23.65 39.57,3.94 85.49,-3.03 125.74,-0 11.73,-1.63 25.07,-11.27 26.37,-23.63 3.04,-28.75 -2.4,-62.67 0,-91.99 -2.58,-12.99 -13.41,-21.8 -26.37,-23.64l-128.07 0.37zm-23.99 -26.01l15.88 -5.07c43.02,-0.91 90.58,-4.47 133.51,-1.75 31.89,2.01 59.87,23.03 62.84,56.08 -2.83,30.43 3.73,67.4 -0.4,97.03 -3.94,28.35 -32.37,48.9 -59.78,51.03 -40.46,3.15 -84.84,-2.42 -125.72,0 -5.62,-1.26 -11.35,-1.72 -16.88,-3.39 -2.56,-0.78 -10.31,-4.8 -11.3,-4.59 -1.88,0.4 -4.17,4.75 -6.31,5.88 -9.42,4.97 -24.47,1.13 -25.67,-10.71l0.09 -286.48c1.76,-11.93 21.99,-14.39 29.26,-7.06 1.23,1.24 4.47,8.43 4.47,9.71l0 99.33z"/>
   <path class="fil0" d="M1592.12 415.17l150.68 0c3.55,0 14.39,-4.35 17.58,-6.75 21.83,-16.42 11.37,-45.56 -13.85,-49.67l-127.93 -0.23c-7.26,0.83 -17.36,6.17 -21.66,12.12 -0.76,1.04 -4.8,8.22 -4.8,8.71l0 35.81zm0 29.73l0 34.46c0,1.19 3.73,7.2 4.84,8.68 4.78,6.39 11.61,9.66 19.12,11.96l127.98 0.4c17.16,2.2 17.35,28.42 0.12,29.66 -41.98,-2.74 -88.33,3.56 -129.78,-0.01 -25.32,-2.18 -52.29,-24.6 -54.73,-50.68 -3.03,-32.33 2.02,-69.55 0.35,-102.39 5.02,-25.95 26.71,-43.41 52.02,-47.98 44.09,2.49 94.12,-4.45 137.53,-0.35 63.78,6.03 75.95,90.86 13.54,112.24 -4.15,1.42 -15.32,4 -18.97,4l-152.03 0z"/>
   <path class="fil1" d="M2858.04 358.78c-13.88,1.47 -26.55,8.86 -29.33,23.37 2,29.86 -2.99,63.82 -0.11,93.18 1.52,15.66 16.02,23.76 30.41,24.99 37.62,3.22 79.56,-2.5 117.65,0.04 13.12,-1.08 27.73,-8.48 30.38,-22.31 -2.34,-30.78 2.98,-65.76 0,-96.02 -1.55,-15.59 -18.05,-22.58 -31.76,-23.64 -37.61,-2.93 -79.22,1.92 -117.23,0.39zm-4.05 -31.08c40.59,-3.73 85.5,1.93 126.55,-0.25 26.66,1.39 57.63,22.32 60.25,50.54 3.07,32.57 -2.31,69.67 0,102.74 -4,29.06 -32.15,48.5 -60.1,50.68 -40.06,3.12 -83.96,-2.43 -124.44,0.04 -30.1,-2.06 -57.62,-22.36 -61.43,-53.42 1.76,-31.32 -2.27,-64.99 -0.04,-96.03 2.22,-30.94 30,-51.62 59.22,-54.3z"/>
   <path class="fil1" d="M2407.93 490.43c4.03,-4.02 6.66,-10.78 7.19,-16.46 2.62,-28.33 -2.01,-60.47 0,-89.23 -1.52,-16.43 -16.48,-25.04 -31.76,-26.36 -37.14,-3.18 -78.64,2.43 -116.26,0 -16.41,1.53 -30.12,10.23 -31.76,27.71 -2.56,27.45 1.96,58.66 0,86.53 1.54,16.5 14.66,26.19 30.4,27.7 38.38,-2.14 79.63,2.76 117.65,0.04 8.18,-0.58 18.64,-4.06 24.53,-9.93zm-145.85 -162.74c39.43,-3.62 82.81,2 122.67,-0.43 32.18,1.47 61.52,22.48 64.15,56.12 2.34,30.02 -1.81,62.94 -0,93.29 -2.63,30.57 -30.89,52.11 -60.13,54.74 -41.04,-2.24 -85.04,2.9 -125.72,0 -32.91,-2.35 -59.09,-25.22 -61.49,-58.78 -1.72,-24.18 -1.57,-60.95 -0.04,-85.23 2.19,-34.62 26.65,-56.6 60.57,-59.71z"/>
   <path class="fil0" d="M1478.42 523.45c-1.87,-1.39 -20.28,7.59 -24.8,6.61 -43.91,-3.08 -93.27,4.05 -136.52,0 -23.87,-2.23 -51.08,-24.71 -53.38,-49.32l-0.05 -141.98c1.43,-12.9 25.55,-13.97 30.92,-2.4l0.22 134.92c0.8,15.69 12.55,26.73 27.69,29.07 40.88,-2.46 85.31,3.16 125.77,0.03 13.05,-1.01 25.11,-10.86 27.56,-23.79 2.68,-43.51 -3.27,-90.68 0.03,-133.76 0.6,-7.9 3.2,-12.92 11.63,-14.04 11.08,-1.46 20.84,1.34 20.92,14.04l-0.15 175.64c-0.19,13.22 -20.99,14.98 -28.28,8.14 -1.03,-0.97 -1.18,-2.88 -1.54,-3.14z"/>
   <path class="fil1" d="M3563.4 526.97c-2.23,2.41 -9.01,4.52 -12.42,4.47 -55.38,-3.32 -115.54,4.23 -170.35,-0.03 -29.37,-2.29 -56.65,-23.22 -60.14,-53.39 2.06,-31.5 -2.68,-66.23 0,-97.34 2.62,-30.61 31.36,-50.9 60.27,-53.24 38.74,-3.15 81.08,2.16 120.22,-0.18 6.64,0.74 14.1,1.82 16.92,8.76 3.3,8.23 0.48,20.08 -9.15,22.1 -39.92,2.85 -83.19,-2.87 -122.73,0.25 -14.95,1.18 -29.64,8.87 -31.76,24.99l0.28 95.7c4.56,13.8 16.27,19.83 30.12,21.24l172.72 0.25c10.45,2.3 11.85,20.03 6,26.4z"/>
   <path class="fil1" d="M3135.38 327.33l43.92 0c0.37,0 6.19,1.98 7.07,2.4 9.77,4.7 9.77,22.95 0,27.64 -0.88,0.42 -6.7,2.39 -7.07,2.39l-43.92 0 0 157.43c0,0.37 -1.97,6.15 -2.39,7.06 -3.63,7.76 -17.74,8.64 -24.58,5.04 -1.49,-0.77 -6.81,-6.9 -6.81,-8.05l0 -161.49c-12.19,0.66 -26.72,-0.17 -27.14,-15.52 -0.45,-16.79 13.94,-17.42 27.14,-16.91l0 -49.32c0,-0.63 3.66,-6.47 4.87,-7.29 6.25,-4.22 18.53,-4.11 24.21,1.17 1.3,1.19 4.7,7.72 4.7,8.83l0 46.62z"/>
   <path class="fil0" d="M1190.4 222.23c13.29,-2.37 21.51,2.75 22.05,16.52l-0.04 275.75c1.12,19.37 -29.45,22.1 -32.49,4.08l0 -285.22c0.37,-5.88 4.78,-10.12 10.49,-11.13z"/>
   <path class="fil1" d="M3262.04 526.97c-3.27,3.56 -12.89,4.89 -17.59,4.11 -9.68,-1.61 -12.05,-7.61 -13.15,-16.57l0 -170.31c-0.62,-20.6 29.9,-22.89 33.84,-4.08l0.03 178.47c-0.26,2.26 -1.72,6.81 -3.13,8.38z"/>
   <path class="fil1" d="M3240.42 261.42c18.92,-3.32 32.83,3.64 29.99,24.6 -2.87,21.41 -40.29,20.41 -43.07,1.39 -1.55,-10.52 1.01,-23.87 13.09,-25.99z"/>
  </g>
 </g>
</svg>
