<?xml version="1.0" encoding="UTF-8"?>
<svg width="616.08203" height="418.50684" version="1.1" viewBox="0 0 616.08203 418.50684" xml:space="preserve" xmlns="http://www.w3.org/2000/svg" xmlns:cc="http://creativecommons.org/ns#" xmlns:dc="http://purl.org/dc/elements/1.1/" xmlns:rdf="http://www.w3.org/1999/02/22-rdf-syntax-ns#" xmlns:xlink="http://www.w3.org/1999/xlink"><title>DoD Logo Stacked Dark</title><metadata><rdf:RDF><cc:Work rdf:about=""><dc:format>image/svg+xml</dc:format><dc:type rdf:resource="http://purl.org/dc/dcmitype/StillImage"/><dc:title>DoD Logo Stacked Dark</dc:title></cc:Work></rdf:RDF></metadata>
<g fill="#ADADAD">
	<polygon points="256.03 239.93 260 239.93 260 229.73 256.03 229.73"/>
	<polygon points="355.42 239.93 359.21 239.93 359.21 229.73 355.42 229.73"/>
	<polygon points="303.12 243.66 305.99 243.66 305.99 229.73 303.12 229.73"/>
	<polygon points="297.01 243.66 299.88 243.66 299.88 229.73 297.01 229.73"/>
	<polygon points="291.07 243.66 293.94 243.66 293.94 229.73 291.07 229.73"/>
	<polygon points="315 243.66 317.87 243.66 317.87 229.73 315 229.73"/>
	<polygon points="309.06 243.66 311.93 243.66 311.93 229.73 309.06 229.73"/>
	<polygon points="327.22 243.66 330.09 243.66 330.09 229.73 327.22 229.73"/>
	<polygon points="321.11 243.66 323.98 243.66 323.98 229.73 321.11 229.73"/>
	<polygon points="285.13 243.66 288 243.66 288 229.73 285.13 229.73"/>
	<polygon points="408.7 153.62 397.45 152.17 380.95 173.42 394.04 174.81"/>
	<polygon points="427.1 155.99 415.95 154.55 402.18 175.67 415.16 177.06"/>
	<polygon points="200.04 177.06 213.02 175.67 199.25 154.55 188.1 155.99"/>
	<polygon points="272.76 180.74 271.96 183.93 343.26 183.93 342.45 180.74"/>
	<polygon points="307.6 104.82 286.94 109.86 290.59 111.61 307.6 107.32 324.61 111.61 328.27 109.87"/>
	<polygon points="307.6 110.45 294.87 113.65 299.19 115.71 307.6 113.58 316.02 115.72 320.34 113.65"/>
	<polygon points="307.6 116.22 302.81 117.44 307.61 119.73 312.4 117.44"/>
	<polygon points="188.1 137.45 201.39 134.1 196.96 132.09 177.15 136.69 182.58 146.27 192.98 144.94"/>
	<polygon points="432.62 146.27 438.05 136.69 418.25 132.09 413.82 134.1 427.1 137.45 422.22 144.94"/>
	<path d="m336 117.59c-1.3809 0.67676-2.8291 1.3882-4.2881 2.105l56.375 14.292 4.6856-2.123-56.772-14.274z"/>
	<path d="m328.13 121.45c-1.835 0.90283-3.5977 1.7715-5.1543 2.5405l54.42 14.833 6.8135-3.0864-56.079-14.287z"/>
	<path d="m343.94 113.69c-0.88477 0.43359-2.1904 1.0732-3.7627 1.8442l56.945 14.354 4.6162-2.0913-57.799-14.107z"/>
	<path d="m275.06 115.53c-1.5469-0.76025-2.833-1.3906-3.7622-1.8438l-57.827 14.113 4.6157 2.0913 56.973-14.361z"/>
	<path d="m283.51 119.69c-1.4673-0.72314-2.9111-1.4346-4.2783-2.1074l-56.794 14.28 4.686 2.1226 56.386-14.295z"/>
	<path d="m230.99 135.73 6.813 3.0864 54.42-14.833c-1.6348-0.80762-3.3809-1.6694-5.1499-2.5415l-56.083 14.288z"/>
	<polygon points="399.9 140.41 397.01 141.72 415.31 144.06"/>
	<polygon points="404.75 138.21 417.16 141.38 419.15 138.5 409.48 136.06"/>
	<polygon points="215.29 140.4 199.89 144.06 218.21 141.72"/>
	<polygon points="210.46 138.21 198.08 141.44 196.04 138.5 205.73 136.06"/>
	<polygon points="255.68 195.36 225.85 195.36 220.53 187.18 207.02 189.35 213.69 201.12 253.87 201.12 254.81 198.13 254.81 198.13"/>
	<polygon points="401.51 201.12 408.18 189.35 402.6 188.45 394.67 187.18 389.34 195.36 359.53 195.36 361.34 201.12"/>
	<polygon points="346.14 195.36 269.08 195.36 267.62 201.12 347.59 201.12 346.84 198.13 346.84 198.13"/>
	<polygon points="259.27 183.93 260.24 180.82 228.8 185.86 232.89 191.76 256.81 191.76 258.33 186.93 249.23 186.93 252.23 183.93"/>
	<polygon points="344.01 186.93 271.2 186.93 270.5 189.71 270.5 189.71 269.98 191.76 345.23 191.76 344.82 190.15 344.71 189.71 344.71 189.71"/>
	<polygon points="386.4 185.85 354.97 180.82 355.95 183.93 362.97 183.93 362.99 183.93 365.99 186.93 356.89 186.93 358.4 191.76 382.31 191.76 386.39 185.86 386.41 185.86"/>
	<polygon points="242.56 172.53 253.07 171.41 233.38 150.16 224.54 151.29"/>
	<polygon points="217.75 152.17 206.5 153.62 221.16 174.81 234.25 173.42"/>
	<polygon points="362.15 171.41 372.64 172.53 390.66 151.29 381.84 150.16"/>
</g>
<g fill="#141414">
	<path d="m408.06 236.94h-4.2812v-10.387h4.2812v10.387zm-8.5674 0h-4.2803v-10.387h4.2803v10.387zm-9.1894 0h-4.2812v-10.387h4.2812v10.387zm-9.3203 0h-4.2812v-10.387h4.2812v10.387zm-9.0596 0h-4.2812v-10.387h4.2812v10.387zm-26.126 0h-4.5176v-10.387h4.5176v10.387zm-12.829-16.203 3.0713 6.9287v15.987h15.493v-17.1h11.567v15.879h49.566l0.00293-21.502-79.701-0.19336z"/>
	<path d="m308.04 47.261c-106.24 0-192.37 57.022-192.37 127.36 0 70.34 86.128 127.36 192.37 127.36 106.24 0 192.37-57.021 192.37-127.36-1e-5 -70.341-86.129-127.36-192.37-127.36zm0 5.9976c50.221 0 97.354 12.894 132.72 36.307 34.602 22.908 53.658 53.116 53.658 85.059 0 31.942-19.057 62.148-53.658 85.059-35.363 23.412-82.496 36.307-132.72 36.307-50.22 0-97.353-12.895-132.72-36.307-34.602-22.91-53.658-53.117-53.658-85.059 0-31.943 19.056-62.15 53.658-85.059 35.364-23.413 82.497-36.307 132.72-36.307"/>
	<path d="m273.89 236.94h-4.5469v-10.387h4.5469v10.387zm-26.33 0h-4.1851v-10.387h4.1851v10.387zm-8.9839 0h-4.1851v-10.387h4.1851v10.387zm-8.9829 0h-4.1851v-10.387h4.1851v10.387zm-9.1113 0h-4.1846v-10.387h4.1846v10.387zm-9.2119 0h-4.1851v-10.387h4.1851v10.387zm-8.939-16.01-0.00293 21.502h49.877v-15.879h11.646v17.1h15.362v-15.805l3.1094-7.1113-79.991 0.19337z"/>
	<path d="m386.13 143.35 31.805-14.41 27.389 6.356-7.7998 14.619-51.394-6.5649zm34.749 37.329-66.239-7.0503 24.826-26.803 55.759 7.186-14.346 26.667zm-13.445 24.429-47.987 0.01416-8.7871-28.031 66.371 10.636-9.5967 17.381zm-143.91 0.01416 7.1523-28.379h73.862l7.1523 28.379h-88.167zm-55.747-0.01416-9.5972-17.381 66.373-10.636-8.7891 28.031-47.987-0.01416zm-27.791-51.096 55.759-7.186 24.827 26.803-66.24 7.0503-14.346-26.667zm-10.098-18.716 27.388-6.356 31.805 14.41-51.393 6.5649-7.7998-14.619zm103.08-24.18c-0.00928 0.02002-0.01709 0.04004-0.02588 0.06055 0.02588-0.06055 27.705 13.628 27.705 13.628l-63.079 17.2-32.704-14.813c22.701-5.3584 45.403-10.717 68.104-16.075zm34.636-8.3398 28.206 6.8115-28.206 13.464-28.206-13.464 28.206-6.8115zm66.033 43.162-26.832 26.318h-78.402l-26.832-26.318 66.033-19.605 66.033 19.605zm36.707-18.747-32.704 14.813-63.079-17.2s27.681-13.688 27.705-13.628c-0.00781-0.02051-0.0166-0.04053-0.02441-0.06055 22.7 5.3584 45.401 10.717 68.103 16.075zm-102.74-26.673-142.9 32.035 37.729 75.814h210.35l37.73-75.814-142.9-32.035z"/>
	<polygon points="283.25 246.96 283.25 250.61 331.96 250.61 331.96 246.96"/>
	<polygon points="453.22 133.87 452.5 135.29 415.46 209.7 414.64 211.37 412.78 211.37 202.43 211.37 200.58 211.37 199.75 209.7 162.26 134.37 162 133.87 158.86 138.45 158.86 155.07 199.55 242.52 199.55 218.12 286.82 217.92 283.17 226.42 332.14 226.42 328.49 217.92 415.68 218.12 415.68 242.52 456.36 155.07 456.36 138.45"/>
	<polygon points="307.61 129.46 248.4 147.04 261.16 159.55 301.16 147.64 301.16 148.77 303.88 150.51 311.33 150.51 314.05 148.77 314.05 147.64 354.05 159.55 366.81 147.04"/>
</g>
<g fill="#141414">
	<path d="m53.389 338.63c0.52637 0 2.4375-0.08203 5.7319-0.24707 0.06592 0.19727 0.09912 0.42871 0.09912 0.69238 0 0.49414-0.06641 0.74023-0.19727 0.74023-0.32959 0-0.92285 0.11719-1.7793 0.34668-0.85693 0.23145-1.3179 0.46191-1.3838 0.69238-0.29639 1.1523-0.44434 2.6846-0.44434 4.5957v11.02c0 3.7227 0.79004 6.6894 2.3721 8.8955 1.581 2.208 3.8213 3.3106 6.7207 3.3106 5.6333 0 8.4502-3.706 8.4502-11.118v-12.355c0-2.0098-0.11572-3.459-0.3457-4.3477-0.09912-0.26367-0.66748-0.51953-1.7051-0.7666-1.0376-0.24805-1.7715-0.37109-2.1992-0.37109-0.13184 0-0.19775-0.18848-0.19775-0.56738s0.06592-0.63477 0.19775-0.7666c0.42773 0.0332 1.2852 0.09082 2.5698 0.17285s2.3721 0.12305 3.2617 0.12305c0.85596 0 1.9346-0.04883 3.2373-0.14844 1.3003-0.09766 2.0664-0.14746 2.2974-0.14746 0.06592 0.19727 0.09912 0.44434 0.09912 0.74121 0 0.39453-0.06641 0.59277-0.19775 0.59277-0.33008 0-1.0464 0.13184-2.1499 0.39551-1.104 0.26367-1.689 0.51172-1.7544 0.74219-0.26367 1.0205-0.39502 2.5527-0.39502 4.5957v12.008c0 5.1074-1.0708 8.6572-3.2124 10.65-2.1416 1.9941-5.1885 2.9902-9.1421 2.9902-3.9209 0-6.9356-1.1543-9.0435-3.459-2.1089-2.3066-3.1631-6.0293-3.1631-11.17v-11.218c0-2.043-0.11572-3.5088-0.3457-4.3975-0.09863-0.26367-0.56836-0.50195-1.4082-0.7168-0.84082-0.21484-1.4756-0.32227-1.9028-0.32227-0.13184 0-0.19775-0.21289-0.19775-0.64258 0-0.39453 0.06592-0.6582 0.19775-0.79004 3.7881 0.16505 5.7647 0.24708 5.9302 0.24708z"/>
	<path d="m79.881 370.92c-0.57666-0.57617-0.86426-1.2598-0.86426-2.0508s0.2876-1.458 0.86426-2.001c0.57666-0.54395 1.2607-0.81543 2.0513-0.81543s1.4575 0.27148 2.0015 0.81543c0.54346 0.54297 0.81543 1.21 0.81543 2.001s-0.27197 1.4746-0.81543 2.0508c-0.54395 0.57617-1.2109 0.86523-2.0015 0.86523s-1.4746-0.28905-2.0513-0.86523z"/>
	<path d="m90.509 346.88c0-2.5361 0.97119-4.6201 2.916-6.252 1.9434-1.6309 4.2002-2.4463 6.77-2.4463 0.72412 0 1.4082 0.04297 2.0508 0.125 0.64209 0.08203 1.169 0.17188 1.5815 0.27051 0.41113 0.09863 1.0044 0.25586 1.7788 0.46973 0.77393 0.21484 1.4575 0.38672 2.0508 0.51953 0.39551 1.7461 0.59326 4.1016 0.59326 7.0654 0 0.23145-0.16553 0.34668-0.49463 0.34668-0.79053 0-1.2188-0.16406-1.2842-0.49414-0.16553-1.4492-0.86523-2.8574-2.1006-4.2246s-2.7427-2.0518-4.5215-2.0518c-1.977 0-3.3691 0.49512-4.1763 1.4834-0.80762 0.98828-1.2109 2.207-1.2109 3.6562 0 0.62695 0.11523 1.2275 0.34619 1.8047 0.22998 0.57617 0.46094 1.0537 0.69189 1.4326 0.23047 0.37891 0.6499 0.81543 1.2598 1.3096 0.60938 0.49414 1.0547 0.83984 1.3345 1.0371 0.27979 0.19824 0.84033 0.56055 1.6802 1.0879 0.84033 0.52637 1.375 0.85645 1.6064 0.98828 0.16406 0.09766 0.74121 0.45313 1.7295 1.0625s1.6631 1.0371 2.0264 1.2852c0.3623 0.24609 0.93066 0.69141 1.7046 1.334s1.3345 1.2109 1.6802 1.7051 0.6748 1.1113 0.98877 1.8525c0.3125 0.74219 0.46924 1.5078 0.46924 2.2988 0 2.6357-1.0298 4.8018-3.0889 6.498-2.0591 1.6973-4.4717 2.5449-7.2393 2.5449-0.79102 0-1.6309-0.05762-2.521-0.17285-0.88916-0.11621-1.6304-0.23047-2.2231-0.3457-0.59326-0.11523-1.3428-0.2793-2.2485-0.49414-0.90674-0.21484-1.5405-0.35352-1.9028-0.41992-0.82373-4.0527-1.2354-6.6719-1.2354-7.8584 0-0.19629 0.26318-0.2959 0.79053-0.2959 0.59277 0 1.0044 0.14844 1.2354 0.44531 1.1196 4.7441 3.855 7.1152 8.2036 7.1152 1.647 0 3.0469-0.49414 4.2002-1.4824s1.73-2.3887 1.73-4.2002c0-0.65918-0.09912-1.2686-0.29688-1.8291-0.19727-0.55859-0.40381-1.0205-0.61719-1.3828-0.21484-0.36328-0.59326-0.75-1.1367-1.1621-0.54395-0.41016-0.96387-0.71582-1.2602-0.91406-0.29688-0.19727-0.84033-0.50977-1.6309-0.93945-0.79053-0.42773-1.3345-0.72266-1.6309-0.88867-0.95557-0.56055-1.623-0.95508-2.001-1.1865-0.37988-0.22949-1.0054-0.63379-1.8784-1.2109-0.87354-0.5752-1.5073-1.0869-1.9028-1.5312-0.39502-0.44434-0.85693-0.98926-1.3833-1.6309-0.52783-0.64355-0.89844-1.3262-1.1118-2.0518-0.21484-0.72267-0.32128-1.4824-0.32128-2.2725z"/>
	<path d="m114.27 370.92c-0.57666-0.57617-0.86475-1.2598-0.86475-2.0508s0.28809-1.458 0.86475-2.001c0.57617-0.54395 1.2607-0.81543 2.0508-0.81543 0.79102 0 1.458 0.27148 2.0015 0.81543 0.54395 0.54297 0.81592 1.21 0.81592 2.001s-0.27197 1.4746-0.81592 2.0508c-0.54346 0.57617-1.2104 0.86523-2.0015 0.86523-0.79004 1e-5 -1.4746-0.28905-2.0508-0.86523z"/>
	<path d="m138.74 344.66v19.568c0 1.3848 0.24658 2.6377 0.74121 3.7578 0.13135 0.32813 1.0127 0.57617 2.6436 0.74023 1.6309 0.16602 2.8916 0.24805 3.7808 0.24805 7.5772 0 11.366-4.8936 11.366-14.678 0-3.7559-0.99707-6.9522-2.9898-9.5879-1.9941-2.6348-4.9009-3.9531-8.7222-3.9531h-0.24756c-3.5581 0-5.5347 0.26367-5.9302 0.79004-0.42869 0.59473-0.64207 1.6309-0.64207 3.1143zm-2.1743-5.9805c1.2515 0 2.8413-0.01563 4.7686-0.04883 1.9272-0.03125 3.2036-0.0498 3.8301-0.0498 5.3696 0 9.5537 1.582 12.552 4.7432 2.998 3.1641 4.498 6.8877 4.498 11.17 0 4.7773-1.5161 8.7637-4.5474 11.959-3.0308 3.1953-7.2148 4.794-12.552 4.794-0.39502 0-1.5737-0.0332-3.5332-0.09863-1.9604-0.06641-3.5996-0.08203-4.917-0.04883l-5.9795 0.14746c-0.09912-0.09863-0.14844-0.34668-0.14844-0.74121 0-0.46094 0.04932-0.69141 0.14844-0.69141 0.42773 0 1.0625-0.11523 1.9023-0.34668 0.84033-0.22949 1.3423-0.49316 1.5073-0.79102 0.23047-0.39551 0.3457-1.9424 0.3457-4.6455v-18.68c0-1.9434-0.11523-3.3613-0.3457-4.25-0.09863-0.26367-0.58545-0.50977-1.458-0.74023-0.87305-0.23145-1.5239-0.3457-1.9517-0.3457-0.13232 0-0.19775-0.19922-0.19775-0.59375 0-0.42773 0.06543-0.70801 0.19775-0.84082 1.7124 0.06739 3.6733 0.09864 5.8809 0.09864z"/>
	<path d="m174.34 351.38c-1.7134 0-3.0234 0.73242-3.9282 2.1992-0.90674 1.4658-1.3599 2.6768-1.3599 3.6318 0 0.23145 0.09863 0.34668 0.29688 0.34668h9.6357c0.16504 0 0.24805-0.16406 0.24805-0.49414 0-1.0547-0.44482-2.2656-1.335-3.6328-0.88868-1.3672-2.0747-2.0508-3.5576-2.0508zm0.49463-1.8291c1.5142 0 2.8491 0.28906 4.002 0.86523 1.1533 0.57715 2.0342 1.3174 2.644 2.2236 0.60938 0.90625 1.0542 1.8291 1.334 2.7686 0.28027 0.93848 0.42139 1.8701 0.42139 2.792 0 0.6582-0.1001 1.0625-0.29736 1.2109-0.19678 0.14844-0.57666 0.22168-1.1357 0.22168h-12.454c-0.26416 0-0.39502 0.08203-0.39502 0.24707 0 2.0762 0.625 3.9873 1.877 5.7324 1.252 1.7461 3.0649 2.6191 5.437 2.6191 0.69092 0 1.3501-0.06543 1.9761-0.19727 0.62598-0.13086 1.1621-0.28809 1.606-0.4707 0.44482-0.17969 0.82324-0.36133 1.1372-0.54297 0.31299-0.18066 0.58496-0.35352 0.81592-0.51855l0.34473-0.24707c0.19824 0 0.29736 0.21484 0.29736 0.64258 0 0.26367-0.09912 0.56055-0.29736 0.88965-0.65869 0.92188-1.6299 1.7539-2.915 2.4951-1.2847 0.74219-2.6856 1.1113-4.2007 1.1113-2.7349 0-5.082-1.0293-7.042-3.0879-1.9609-2.0586-2.9399-4.5723-2.9399-7.5371 0-3.459 0.92969-6.1924 2.792-8.2031 1.8599-2.0098 4.1919-3.0146 6.9927-3.0146z"/>
	<path d="m194.92 351.97c-1.021 0-1.8618 0.27148-2.52 0.81445-0.65967 0.54395-0.98877 1.3272-0.98877 2.3467v11.12c0 0.89063 0.47705 1.6387 1.4331 2.248s1.9927 0.91504 3.1128 0.91504c1.9438 0 3.4922-0.87305 4.646-2.6201 1.1528-1.7441 1.73-3.706 1.73-5.8799 0-2.7686-0.73389-4.9502-2.1987-6.5488-1.4673-1.5967-3.2051-2.3955-5.2144-2.3955zm1.5811-2.4228c3.1631 0 5.6343 1.0635 7.4131 3.1885s2.669 4.3896 2.669 6.7949c0 3.1621-1.105 5.9473-3.311 8.3516-2.208 2.4053-4.7119 3.6074-7.5117 3.6074-0.49414 0-0.93115-0.01758-1.3091-0.04883-0.37891-0.0332-0.71729-0.0918-1.0142-0.17383-0.2959-0.08203-0.52686-0.15625-0.69092-0.22266-0.16504-0.06445-0.37988-0.15625-0.64307-0.27148-0.26416-0.11426-0.42773-0.18945-0.49414-0.22266-0.13184 0.16602-0.19775 0.37891-0.19775 0.64258v4.25c0 1.9102 0.13086 3.377 0.396 4.3984 0.06494 0.23047 0.49414 0.45215 1.2842 0.66797 0.79102 0.21289 1.3506 0.32031 1.6807 0.32031 0.09814 0 0.16406 0.20508 0.19727 0.61816 0.03271 0.41113 0.0166 0.68359-0.04932 0.81543-3.2949-0.16602-5.0581-0.24805-5.2876-0.24805-0.19824 0-1.9941 0.08203-5.3872 0.24805-0.13086-0.13184-0.19678-0.4043-0.19678-0.81543 0-0.41309 0.06592-0.61816 0.19678-0.61816 0.396 0 0.98096-0.10742 1.7549-0.32031 0.77393-0.21582 1.1938-0.4375 1.2602-0.66797 0.22998-0.95508 0.3457-2.1094 0.3457-3.459v-20.41c0-1.2852-0.23096-2.1748-0.69189-2.668-0.33008-0.39551-0.73389-0.66797-1.2109-0.81641s-0.87305-0.22266-1.186-0.22266-0.46875-0.03125-0.46875-0.09863c0-0.79004 0.09863-1.2022 0.29688-1.2354 3.4907-0.52637 5.7637-0.95508 6.8188-1.2852 0.0332 0 0.11523-0.01563 0.24707-0.04883 0.09912 0 0.14795 0.0918 0.14795 0.27246s-0.01709 0.40332-0.04883 0.66699c-0.0332 0.26367-0.04932 0.41211-0.04932 0.44531v0.29492c0.45996-0.32813 1.227-0.69922 2.2974-1.1113 1.0708-0.41111 1.9849-0.61814 2.7427-0.61814z"/>
	<path d="m214.36 367.91c0.56006 0.47754 1.2847 0.7168 2.1748 0.7168s1.7461-0.27246 2.5698-0.81543c0.82324-0.54297 1.2354-1.0957 1.2354-1.6562v-5.0898c-0.26416 0.13281-0.90625 0.36328-1.9272 0.69238s-1.8208 0.61816-2.397 0.86523c-0.57666 0.24707-1.1367 0.65918-1.6797 1.2354-0.54395 0.57617-0.81543 1.2441-0.81543 2.002 1e-5 0.88867 0.27931 1.5723 0.83937 2.0498zm4.646-18.359c1.812 0 3.1128 0.43848 3.9038 1.3096 0.79004 0.87305 1.186 2.2832 1.186 4.2256v11.416c0 0.69238 0.18115 1.2686 0.54297 1.7295 0.36328 0.46094 0.85693 0.69238 1.4829 0.69238 0.46094 0 1.0381-0.23145 1.73-0.69238 0.13135 0 0.19824 0.13281 0.19824 0.39551 0 0.42871-0.08301 0.77441-0.24805 1.0381-1.3511 1.1523-2.5039 1.7285-3.459 1.7285-0.75781 0-1.4819-0.3125-2.1738-0.9375-0.69238-0.62598-1.1704-1.2852-1.4341-1.9766-0.0332 0-0.15625 0.10645-0.37012 0.32031-0.21484 0.21484-0.50293 0.46094-0.86523 0.74121-0.36279 0.28027-0.78271 0.56738-1.2598 0.86426-0.47803 0.29688-1.0381 0.54492-1.6802 0.74219-0.64258 0.19727-1.294 0.29688-1.9517 0.29688-1.5161 0-2.7681-0.40332-3.7564-1.2109-0.98779-0.80762-1.4829-2.0186-1.4829-3.6328 0-0.72363 0.18115-1.4082 0.54395-2.0508 0.3623-0.64258 0.79102-1.169 1.2852-1.582 0.49414-0.41016 1.169-0.83008 2.0259-1.2598 0.85693-0.42773 1.5889-0.74805 2.1992-0.96387 0.60889-0.21387 1.4087-0.48535 2.397-0.81543 0.98779-0.32813 1.6797-0.57617 2.0747-0.74023 0.29736-0.09961 0.44531-0.34668 0.44531-0.74219v-3.707c0-1.0527-0.33008-1.8682-0.98828-2.4453-0.65967-0.57617-1.4497-0.86523-2.3721-0.86523-0.98877 0-1.8115 0.33789-2.4707 1.0137s-0.98828 1.5566-0.98828 2.6436c0 1.1533-0.67578 1.7295-2.0269 1.7295-0.92188 0-1.5649-0.3125-1.9268-0.93848 0-1.416 1.0376-2.8252 3.1128-4.2256 2.0762-1.3994 4.1841-2.1006 6.3262-2.1006z"/>
	<path d="m242.98 349.5c1.9438 0 3.228 0.47754 3.855 1.4326 0 1.1543-0.18213 1.9932-0.54395 2.5205-0.36279 0.52832-0.80713 0.79102-1.334 0.79102-0.59326 0-1.1372-0.2793-1.6309-0.84082-0.49414-0.55859-1.1699-0.83984-2.0259-0.83984-1.0215 0-1.9111 0.47852-2.6685 1.4336-0.75879 0.95605-1.1367 1.9609-1.1367 3.0156v7.4111c0 1.9111 0.13086 3.3779 0.39502 4.3975 0.06592 0.23242 0.50195 0.45508 1.3101 0.66895 0.80664 0.21387 1.375 0.32129 1.7036 0.32129 0.1001 0 0.16504 0.19727 0.19824 0.5918 0.0332 0.39648 0.01709 0.67578-0.04883 0.84082-3.2954-0.16504-5.0742-0.24707-5.3374-0.24707-0.19775 0-1.9936 0.08203-5.3867 0.24707-0.13184-0.13184-0.19824-0.40332-0.19824-0.81543s0.06641-0.61719 0.19824-0.61719c0.396 0 0.97998-0.10742 1.7539-0.32129s1.1938-0.43652 1.2612-0.66895c0.22998-0.95313 0.3457-2.1074 0.3457-3.458v-9.3408c0-1.2852-0.23096-2.1738-0.69287-2.668-0.3291-0.39551-0.73291-0.66797-1.21-0.81543-0.47803-0.14746-0.87305-0.22363-1.186-0.22363-0.31396 0-0.47021-0.03125-0.47021-0.09766 0-0.79102 0.09912-1.2012 0.29736-1.2344 3.4917-0.52734 5.7646-0.95703 6.8198-1.2852 0.03174 0 0.11377-0.01758 0.24707-0.05078 0.13086 0 0.21387 0.1416 0.24707 0.41992 0.03174 0.28125 0.03174 0.48633 0 0.61914l-0.29736 2.4707c0.59326-0.89063 1.4092-1.7227 2.4473-2.4961 1.0371-0.77343 2.0659-1.1611 3.0879-1.1611z"/>
	<path d="m251.77 352.62h-2.8662c-0.16455 0-0.24756-0.34668-0.24756-1.0381 0-0.19727 0.0166-0.3125 0.0498-0.3457 0.95508-0.42773 1.9932-1.3008 3.1128-2.6191 0.3623-0.42773 0.71729-0.91406 1.063-1.457 0.34521-0.54492 0.63428-1.0137 0.86523-1.4092 0.22998-0.39551 0.34619-0.6084 0.34619-0.6416 0.98779 0 1.4819 0.08203 1.4819 0.24609v4.8926c0.85693 0 2.1577 0.00879 3.9038 0.02539s2.669 0.02344 2.7671 0.02344c0.26416 0 0.396 0.14844 0.396 0.44531 0 0.59277-0.16504 1.2197-0.49414 1.8779h-6.5728v12.108c0 1.3174 0.33789 2.3711 1.0127 3.1621 0.67529 0.79004 1.5571 1.1856 2.644 1.1856 0.98828 0 2.0093-0.3125 3.064-0.93848 0.09912-0.06543 0.24707 0.07422 0.44531 0.41992 0.19775 0.34668 0.27881 0.53613 0.24658 0.56836-0.49365 0.52637-1.252 1.0459-2.273 1.5576-1.022 0.50977-2.0757 0.76563-3.1626 0.76563-1.6484 0-3.0234-0.54492-4.127-1.6309-1.1045-1.0879-1.6553-2.6357-1.6553-4.6465v-12.552h1e-5z"/>
	<path d="m279.5 349.45c1.3169 0 2.4121 0.35547 3.2861 1.0625 0.87305 0.70898 1.4741 1.5244 1.8042 2.4463 2.4707-2.3389 5.023-3.5088 7.6587-3.5088 4.1519 0 6.227 3.1631 6.227 9.4883v5.4854c0 1.9111 0.13086 3.3779 0.396 4.3975 0.06494 0.23242 0.49414 0.45508 1.2842 0.66895 0.79102 0.21387 1.3511 0.32129 1.6807 0.32129 0.09814 0 0.16406 0.19727 0.19727 0.5918 0.03271 0.39648 0.01709 0.67578-0.04932 0.84082-3.2949-0.16504-5.0576-0.24707-5.2876-0.24707-0.19727 0-1.9941 0.08203-5.3872 0.24707-0.13086-0.13184-0.19678-0.40332-0.19678-0.81543s0.06592-0.61719 0.19678-0.61719c0.396 0 0.98096-0.10742 1.7549-0.32129 0.77441-0.21387 1.1943-0.43652 1.2602-0.66895 0.22998-0.95313 0.3457-2.0078 0.3457-3.1611v-5.584c0-5.0742-1.6636-7.6113-4.9907-7.6113-1.2192 0-2.273 0.35449-3.1631 1.0615-0.89014 0.70898-1.334 1.2949-1.334 1.7559l0.04883 0.19727v0.24805c0.13135 0.82324 0.19824 2.0098 0.19824 3.5576v5.584c0 1.6143 0.13086 2.9326 0.39502 3.9522 0.06592 0.23242 0.49463 0.45508 1.2847 0.66895 0.79102 0.21387 1.3511 0.32129 1.6802 0.32129 0.09912 0 0.16504 0.19727 0.19824 0.5918 0.03174 0.39648 0.01563 0.67578-0.05029 0.84082-3.294-0.16504-5.0571-0.24707-5.2871-0.24707-0.19775 0-1.9936 0.08203-5.3867 0.24707-0.13184-0.13184-0.19727-0.40332-0.19727-0.81543s0.06543-0.61719 0.19727-0.61719c0.39502 0 0.97998-0.10742 1.7549-0.32129 0.77295-0.21387 1.1929-0.43652 1.2602-0.66895 0.22998-0.95313 0.3457-2.1074 0.3457-3.458v-5.04c0-5.2393-1.582-7.8584-4.7441-7.8584-0.98877 0-1.9858 0.37109-2.9898 1.1123-1.0059 0.74023-1.5068 1.458-1.5068 2.1504v8.6963c0 1.9111 0.12988 3.3779 0.39502 4.3975 0.06592 0.23242 0.49365 0.45508 1.2837 0.66895 0.79102 0.21387 1.3511 0.32129 1.6812 0.32129 0.09912 0 0.16406 0.19727 0.19678 0.5918 0.0332 0.39648 0.01709 0.67578-0.04883 0.84082-3.2949-0.16504-5.0571-0.24707-5.2881-0.24707-0.19678 0-1.9932 0.08203-5.3857 0.24707-0.13232-0.13184-0.19824-0.40332-0.19824-0.81543s0.06592-0.61719 0.19824-0.61719c0.39502 0 0.97998-0.10742 1.7539-0.32129s1.1938-0.43652 1.2598-0.66895c0.23096-0.95313 0.34619-2.1074 0.34619-3.458v-9.3408c0-1.2852-0.23096-2.1738-0.69189-2.668-0.3291-0.39551-0.7334-0.66797-1.21-0.81543-0.47803-0.14746-0.87402-0.22363-1.186-0.22363-0.31396 0-0.47021-0.03125-0.47021-0.09766 0-0.79102 0.09912-1.2012 0.29688-1.2344 3.4922-0.52734 5.7642-0.95703 6.8193-1.2852 0.03271 0 0.11475-0.01758 0.24805-0.05078 0.12988 0 0.21289 0.1416 0.24561 0.41992 0.0332 0.28125 0.0332 0.48633 0 0.61914-0.13086 0.92188-0.19678 1.5801-0.19678 1.9766 0 0.13184 0.03223 0.19727 0.09912 0.19727 0.03174 0 0.08203-0.03223 0.14795-0.09961 0.75781-0.78906 1.7871-1.5391 3.0889-2.248 1.3013-0.70701 2.5449-1.0625 3.731-1.0625z"/>
	<path d="m312.06 351.38c-1.7129 0-3.022 0.73242-3.9277 2.1992-0.90723 1.4658-1.3594 2.6768-1.3594 3.6318 0 0.23145 0.09912 0.34668 0.29639 0.34668h9.6372c0.16406 0 0.24609-0.16406 0.24609-0.49414 0-1.0547-0.44434-2.2656-1.333-3.6328-0.89062-1.3672-2.0762-2.0508-3.5596-2.0508zm0.49512-1.8291c1.5146 0 2.8486 0.28906 4.0029 0.86523 1.1523 0.57715 2.0332 1.3174 2.6426 2.2236 0.61035 0.90625 1.0547 1.8291 1.335 2.7686 0.2793 0.93848 0.4209 1.8701 0.4209 2.792 0 0.6582-0.09961 1.0625-0.29785 1.2109-0.19629 0.14844-0.57617 0.22168-1.1357 0.22168h-12.454c-0.26416 0-0.39502 0.08203-0.39502 0.24707 0 2.0762 0.625 3.9873 1.8779 5.7324 1.251 1.7461 3.0635 2.6191 5.4356 2.6191 0.69238 0 1.3506-0.06543 1.9766-0.19727 0.62598-0.13086 1.1621-0.28809 1.6055-0.4707 0.44531-0.17969 0.82324-0.36133 1.1377-0.54297 0.3125-0.18066 0.58496-0.35352 0.81543-0.51855l0.3457-0.24707c0.19727 0 0.29688 0.21484 0.29688 0.64258 0 0.26367-0.09961 0.56055-0.29688 0.88965-0.65918 0.92188-1.6309 1.7539-2.916 2.4951-1.2842 0.74219-2.6856 1.1113-4.1992 1.1113-2.7363 0-5.0835-1.0293-7.0435-3.0879-1.9609-2.0586-2.9399-4.5723-2.9399-7.5371 0-3.459 0.93018-6.1924 2.792-8.2031 1.8613-2.0098 4.1924-3.0146 6.9932-3.0146z"/>
	<path d="m337 349.45c2.3057 0 3.9209 0.82422 4.8428 2.4717s1.3838 4.3154 1.3838 8.0049v4.4971c0 1.9111 0.13086 3.3779 0.39453 4.3975 0.06641 0.23242 0.49414 0.45508 1.2852 0.66895s1.3516 0.32129 1.6807 0.32129c0.09863 0 0.16504 0.19727 0.19824 0.5918 0.03125 0.39648 0.0166 0.67578-0.0498 0.84082-3.2949-0.16504-5.0576-0.24707-5.2881-0.24707-0.06543 0-1.7959 0.08203-5.1885 0.24707-0.13184-0.13184-0.19824-0.40332-0.19824-0.81543s0.06641-0.61719 0.19824-0.61719c0.39453 0 0.94727-0.10742 1.6553-0.32129 0.70898-0.21387 1.0957-0.43652 1.1611-0.66895 0.23047-0.95313 0.34668-2.1074 0.34668-3.458v-4.9424c0-3.0625-0.39648-5.1543-1.1865-6.2754-0.79102-1.1191-2.0762-1.6807-3.8545-1.6807-1.0557 0-2.0684 0.3877-3.0391 1.1611-0.97168 0.77539-1.458 1.4746-1.458 2.1016v8.6963c0 1.9111 0.13086 3.3779 0.39453 4.3975 0.06641 0.23242 0.49512 0.45508 1.2852 0.66895 0.79102 0.21387 1.3516 0.32129 1.6816 0.32129 0.09766 0 0.16309 0.19727 0.19629 0.5918 0.0332 0.39648 0.0166 0.67578-0.04883 0.84082-3.2949-0.16504-5.0576-0.24707-5.2881-0.24707-0.19824 0-1.9941 0.08203-5.3867 0.24707-0.13086-0.13184-0.19727-0.40332-0.19727-0.81543s0.06641-0.61719 0.19727-0.61719c0.39551 0 0.98047-0.10742 1.7549-0.32129s1.1943-0.43652 1.2598-0.66895c0.23047-0.95313 0.34668-2.1074 0.34668-3.458v-9.3408c0-1.2852-0.23145-2.1738-0.69238-2.668-0.33008-0.39551-0.73438-0.66797-1.2109-0.81543-0.47754-0.14746-0.87305-0.22363-1.1865-0.22363-0.3125 0-0.46875-0.03125-0.46875-0.09766 0-0.79102 0.09863-1.2012 0.2959-1.2344 3.4922-0.52734 5.7656-0.95703 6.8203-1.2852 0.03223 0 0.11523-0.01758 0.24707-0.05078 0.13086 0 0.21387 0.1416 0.24707 0.41992 0.0332 0.28125 0.0332 0.48633 0 0.61914-0.13184 0.92188-0.19727 1.5801-0.19727 1.9766 0 0.13184 0.03223 0.19727 0.09766 0.19727 0.0332 0 0.08203-0.03223 0.14844-0.09961 0.75781-0.78906 1.7871-1.5391 3.0889-2.248 1.3008-0.70701 2.5449-1.0625 3.7314-1.0625z"/>
	<path d="m349.98 352.62h-2.8662c-0.16504 0-0.24707-0.34668-0.24707-1.0381 0-0.19727 0.0166-0.3125 0.04883-0.3457 0.95703-0.42773 1.9932-1.3008 3.1143-2.6191 0.3623-0.42773 0.71582-0.91406 1.0625-1.457 0.3457-0.54492 0.63379-1.0137 0.86426-1.4092s0.34668-0.6084 0.34668-0.6416c0.9873 0 1.4824 0.08203 1.4824 0.24609v4.8926c0.85645 0 2.1572 0.00879 3.9043 0.02539 1.7461 0.0166 2.668 0.02344 2.7666 0.02344 0.26465 0 0.39551 0.14844 0.39551 0.44531 0 0.59277-0.16504 1.2197-0.49414 1.8779h-6.5723v12.108c0 1.3174 0.33691 2.3711 1.0137 3.1621 0.6748 0.79004 1.5566 1.1856 2.6436 1.1856 0.98828 0 2.0088-0.3125 3.0644-0.93848 0.09766-0.06543 0.24707 0.07422 0.44434 0.41992 0.19727 0.34668 0.2793 0.53613 0.24609 0.56836-0.49316 0.52637-1.252 1.0459-2.2725 1.5576-1.0215 0.50977-2.0752 0.76563-3.1621 0.76563-1.6484 0-3.0244-0.54492-4.127-1.6309-1.1045-1.0879-1.6562-2.6357-1.6562-4.6465v-12.552z"/>
	<path d="m382.7 351.63c-1.6484 0-3.1475 1.293-4.498 3.8789-1.3516 2.5869-2.0264 5.1826-2.0264 7.7842 0 1.9111 0.30469 3.3926 0.91504 4.4473 0.60938 1.0547 1.375 1.582 2.2978 1.582 1.6475 0 3.1045-1.293 4.373-3.8789 1.2676-2.5879 1.9023-5.1973 1.9023-7.834 0-1.9434-0.26367-3.4258-0.79004-4.4473-0.52832-1.0215-1.2529-1.5322-2.1738-1.5322zm0.59179-2.0264c1.9434 0 3.4512 0.67578 4.5225 2.0264 1.0703 1.3506 1.6055 3.2119 1.6055 5.584 0 3.3936-1.1943 6.5986-3.583 9.6123-2.3887 3.0146-4.835 4.5215-7.3379 4.5215-1.9775 0-3.4844-0.64258-4.5225-1.9268-1.0371-1.2852-1.5557-3.1143-1.5557-5.4854 0-3.4268 1.1856-6.6728 3.5576-9.7363s4.8105-4.5957 7.3135-4.5957z"/>
	<path d="m407.9 336.55c2.1084 0 3.46 0.56055 4.0537 1.6797 0 2.1426-0.59375 3.2129-1.7793 3.2129-0.46191 0-0.89941-0.24609-1.3096-0.74023-0.41211-0.49512-0.84082-0.99609-1.2852-1.5078-0.44531-0.50977-0.93164-0.76563-1.458-0.76563-1.0557 0-2.1748 1.0801-3.3604 3.2363-1.1856 2.1582-2.1094 5.1641-2.7676 9.0195v0.09863c0 0.13184 0.0498 0.19824 0.14746 0.19824h5.6846c0.16406 0 0.24609 0.19727 0.24609 0.5918 0 0.52734-0.18164 1.0879-0.54395 1.6797h-5.7803c-0.16602 0-0.26563 0.13281-0.29688 0.39648l-2.7188 14.775c-0.79102 4.5791-2.1826 8.0713-4.1758 10.477-1.9941 2.4043-4.1602 3.6094-6.499 3.6094-1.1514 0-2.0576-0.20703-2.7178-0.61914-0.6582-0.41211-1.0869-0.88086-1.2842-1.4082-0.0332-0.75781 0.14844-1.4336 0.54297-2.0264 0.39648-0.59277 0.88965-0.88965 1.4834-0.88965 0.2959 0 0.57715 0.15625 0.83984 0.46973 0.26367 0.31348 0.49414 0.65918 0.69141 1.0381 0.19824 0.37793 0.48633 0.72363 0.86523 1.0381 0.37891 0.31152 0.79883 0.46875 1.2598 0.46875 0.625 0 1.252-0.3877 1.8789-1.1611 0.625-0.77344 1.1602-1.7471 1.6055-2.916 0.44531-1.1699 0.82324-2.2812 1.1357-3.335 0.31348-1.0547 0.53613-1.9932 0.66699-2.8174l2.9668-16.754v-0.09766c0-0.16504-0.05078-0.24805-0.14941-0.24805h-3.2119c-0.06641 0-0.09961-0.04883-0.09961-0.14844 0-0.29492 0.26367-0.72363 0.79102-1.2842 0.52637-0.55957 1.0547-0.83887 1.581-0.83887h1.4336c0.13184 0 0.23047-0.14941 0.29688-0.44531 0.65918-4.0527 2.0752-7.3965 4.25-10.032s4.5127-3.9541 7.0166-3.9541z"/>
	<path d="m427.27 344.66v19.568c0 1.3848 0.24707 2.6377 0.74121 3.7578 0.13184 0.32813 1.0127 0.57617 2.6436 0.74023 1.6318 0.16602 2.8916 0.24805 3.7812 0.24805 7.5772 0 11.366-4.8936 11.366-14.678 0-3.7559-0.99707-6.9522-2.9902-9.5879-1.9932-2.6348-4.9004-3.9531-8.7217-3.9531h-0.24707c-3.5596 0-5.5352 0.26367-5.9307 0.79004-0.42872 0.59473-0.64258 1.6309-0.64258 3.1143zm-2.1738-5.9805c1.251 0 2.8408-0.01563 4.7695-0.04883 1.9268-0.03125 3.2022-0.0498 3.8291-0.0498 5.3691 0 9.5537 1.582 12.552 4.7432 2.998 3.1641 4.498 6.8877 4.498 11.17 0 4.7773-1.5166 8.7637-4.5469 11.959-3.0312 3.1953-7.2158 4.794-12.553 4.794-0.39453 0-1.5742-0.0332-3.5342-0.09863-1.96-0.06641-3.5986-0.08203-4.917-0.04883l-5.9785 0.14746c-0.09961-0.09863-0.14844-0.34668-0.14844-0.74121 0-0.46094 0.04883-0.69141 0.14844-0.69141 0.42773 0 1.0615-0.11523 1.9023-0.34668 0.84082-0.22949 1.3428-0.49316 1.5078-0.79102 0.22949-0.39551 0.3457-1.9424 0.3457-4.6455v-18.68c0-1.9434-0.11621-3.3613-0.3457-4.25-0.09961-0.26367-0.58594-0.50977-1.458-0.74023-0.87305-0.23145-1.5244-0.3457-1.9522-0.3457-0.13184 0-0.19824-0.19922-0.19824-0.59375 0-0.42773 0.06641-0.70801 0.19824-0.84082 1.7119 0.06739 3.6729 0.09864 5.8809 0.09864z"/>
	<path d="m462.88 351.38c-1.7129 0-3.0234 0.73242-3.9287 2.1992-0.90625 1.4658-1.3594 2.6768-1.3594 3.6318 0 0.23145 0.09961 0.34668 0.29688 0.34668h9.6367c0.16406 0 0.24707-0.16406 0.24707-0.49414 0-1.0547-0.44531-2.2656-1.335-3.6328-0.88867-1.3672-2.0752-2.0508-3.5576-2.0508zm0.49414-1.8291c1.5146 0 2.8496 0.28906 4.0029 0.86523 1.1523 0.57715 2.0332 1.3174 2.6436 2.2236 0.60938 0.90625 1.0537 1.8291 1.334 2.7686 0.28027 0.93848 0.4209 1.8701 0.4209 2.792 0 0.6582-0.09863 1.0625-0.29688 1.2109-0.19727 0.14844-0.57715 0.22168-1.1357 0.22168h-12.454c-0.26465 0-0.39551 0.08203-0.39551 0.24707 0 2.0762 0.625 3.9873 1.877 5.7324 1.252 1.7461 3.0654 2.6191 5.4375 2.6191 0.69141 0 1.3496-0.06543 1.9756-0.19727 0.62598-0.13086 1.1621-0.28809 1.6064-0.4707 0.44531-0.17969 0.82324-0.36133 1.1367-0.54297 0.31348-0.18066 0.58496-0.35352 0.81641-0.51855l0.34473-0.24707c0.19824 0 0.29688 0.21484 0.29688 0.64258 0 0.26367-0.09863 0.56055-0.29688 0.88965-0.65918 0.92188-1.6299 1.7539-2.915 2.4951-1.2852 0.74219-2.6856 1.1113-4.2012 1.1113-2.7344 0-5.082-1.0293-7.042-3.0879-1.9609-2.0586-2.9394-4.5723-2.9394-7.5371 0-3.459 0.92969-6.1924 2.792-8.2031 1.8603-2.0098 4.1914-3.0146 6.9922-3.0146z"/>
	<path d="m486.53 336.75c2.3721 0 3.9375 0.6416 4.6953 1.9268 0 2.0762-0.59277 3.1143-1.7793 3.1143-0.42871 0-0.83984-0.25488-1.2354-0.7666-0.39551-0.50977-0.84863-1.0293-1.3594-1.5566s-1.1289-0.79102-1.8535-0.79102c-1.4492 0-2.5693 0.89063-3.3594 2.6699-0.79102 1.7783-1.1856 3.8711-1.1856 6.2754v2.5195c0 0.16602 0.08008 0.24805 0.24609 0.24805h5.4854c0.16504 0 0.24707 0.11523 0.24707 0.3457 0 0.52734-0.19727 1.1865-0.59277 1.9766h-5.0908c-0.19629 0-0.29492 0.09961-0.29492 0.29688v11.415c0 1.7803 0.14746 3.2461 0.44434 4.3975 0.06543 0.23242 0.46875 0.45508 1.21 0.66895s1.2598 0.32129 1.5576 0.32129c0.09863 0 0.16504 0.19727 0.19727 0.5918 0.03223 0.39648 0.0166 0.67578-0.0498 0.84082-3.294-0.16504-5.0576-0.24707-5.2871-0.24707-0.09961 0-1.8291 0.08203-5.1894 0.24707-0.06641-0.06543-0.11523-0.22168-0.14844-0.46973s-0.0332-0.46875 0-0.66797c0.0332-0.19629 0.08203-0.29492 0.14844-0.29492 0.39551 0 0.95605-0.10742 1.6807-0.32129 0.72363-0.21387 1.1191-0.43652 1.1865-0.66895 0.32813-1.2832 0.49316-2.749 0.49316-4.3975v-11.366c0-0.22949-0.08301-0.3457-0.24707-0.3457h-2.6191c-0.09863 0-0.14844-0.09863-0.14844-0.2959 0-0.29688 0.2627-0.70898 0.79102-1.2354 0.52637-0.52734 1.0869-0.79102 1.6807-0.79102h0.2959c0.16406 0 0.24707-0.09961 0.24707-0.29688v-0.64258c0-3.459 1.0293-6.4394 3.0889-8.9443 2.0586-2.5039 4.3076-3.7558 6.7451-3.7558z"/>
	<path d="m496.83 351.38c-1.7129 0-3.0234 0.73242-3.9297 2.1992-0.90527 1.4658-1.3584 2.6768-1.3584 3.6318 0 0.23145 0.09863 0.34668 0.29688 0.34668h9.6357c0.16504 0 0.24805-0.16406 0.24805-0.49414 0-1.0547-0.44531-2.2656-1.335-3.6328-0.88867-1.3672-2.0752-2.0508-3.5576-2.0508zm0.49415-1.8291c1.5146 0 2.8496 0.28906 4.0029 0.86523 1.1523 0.57715 2.0332 1.3174 2.6436 2.2236 0.60938 0.90625 1.0537 1.8291 1.334 2.7686 0.28027 0.93848 0.41992 1.8701 0.41992 2.792 0 0.6582-0.09863 1.0625-0.2959 1.2109-0.19824 0.14844-0.57715 0.22168-1.1367 0.22168h-12.453c-0.26465 0-0.39551 0.08203-0.39551 0.24707 0 2.0762 0.625 3.9873 1.877 5.7324 1.252 1.7461 3.0644 2.6191 5.4365 2.6191 0.69238 0 1.3506-0.06543 1.9766-0.19727 0.625-0.13086 1.1621-0.28809 1.6064-0.4707 0.44531-0.17969 0.82324-0.36133 1.1367-0.54297 0.3125-0.18066 0.58496-0.35352 0.81543-0.51855l0.3457-0.24707c0.19824 0 0.29688 0.21484 0.29688 0.64258 0 0.26367-0.09863 0.56055-0.29688 0.88965-0.65918 0.92188-1.6299 1.7539-2.915 2.4951-1.2852 0.74219-2.6856 1.1113-4.2012 1.1113-2.7344 0-5.082-1.0293-7.042-3.0879-1.9609-2.0586-2.9404-4.5723-2.9404-7.5371 0-3.459 0.93066-6.1924 2.793-8.2031 1.8594-2.0098 4.1914-3.0146 6.9922-3.0146z"/>
	<path d="m521.77 349.45c2.3047 0 3.9199 0.82422 4.8428 2.4717s1.3848 4.3154 1.3848 8.0049v4.4971c0 1.9111 0.13086 3.3779 0.39453 4.3975 0.06641 0.23242 0.49414 0.45508 1.2852 0.66895s1.3506 0.32129 1.6797 0.32129c0.09961 0 0.16504 0.19727 0.19824 0.5918 0.03223 0.39648 0.01563 0.67578-0.0498 0.84082-3.294-0.16504-5.0576-0.24707-5.2871-0.24707-0.06738 0-1.7969 0.08203-5.1894 0.24707-0.13184-0.13184-0.19727-0.40332-0.19727-0.81543s0.06543-0.61719 0.19727-0.61719c0.39551 0 0.94629-0.10742 1.6553-0.32129 0.70801-0.21387 1.0947-0.43652 1.1621-0.66895 0.22852-0.95313 0.34473-2.1074 0.34473-3.458v-4.9424c0-3.0625-0.39453-5.1543-1.1856-6.2754-0.79004-1.1191-2.0752-1.6807-3.8545-1.6807-1.0547 0-2.0674 0.3877-3.04 1.1611-0.97168 0.77539-1.457 1.4746-1.457 2.1016v8.6963c0 1.9111 0.13184 3.3779 0.39551 4.3975 0.06641 0.23242 0.49414 0.45508 1.2852 0.66895s1.3496 0.32129 1.6797 0.32129c0.09863 0 0.16504 0.19727 0.19824 0.5918 0.03223 0.39648 0.01563 0.67578-0.0498 0.84082-3.2949-0.16504-5.0576-0.24707-5.2871-0.24707-0.19824 0-1.9941 0.08203-5.3877 0.24707-0.13184-0.13184-0.19727-0.40332-0.19727-0.81543s0.06543-0.61719 0.19727-0.61719c0.39551 0 0.98047-0.10742 1.7549-0.32129 0.77344-0.21387 1.1934-0.43652 1.2607-0.66895 0.22949-0.95313 0.3457-2.1074 0.3457-3.458v-9.3408c0-1.2852-0.23047-2.1738-0.69238-2.668-0.3291-0.39551-0.7334-0.66797-1.2109-0.81543s-0.87305-0.22363-1.1856-0.22363c-0.31445 0-0.46973-0.03125-0.46973-0.09766 0-0.79102 0.09863-1.2012 0.29688-1.2344 3.4922-0.52734 5.7646-0.95703 6.8184-1.2852 0.0332 0 0.11621-0.01758 0.24805-0.05078 0.13184 0 0.21387 0.1416 0.24707 0.41992 0.03223 0.28125 0.03223 0.48633 0 0.61914-0.13184 0.92188-0.19727 1.5801-0.19727 1.9766 0 0.13184 0.03125 0.19727 0.09863 0.19727 0.0332 0 0.08203-0.03223 0.14746-0.09961 0.75879-0.78906 1.7871-1.5391 3.0898-2.248 1.3008-0.70701 2.5449-1.0625 3.7305-1.0625z"/>
	<path d="m541.22 349.5c0.72363 0 1.6377 0.09082 2.7432 0.27051 1.1025 0.18262 1.8691 0.30664 2.2969 0.37109 0.3291 1.5166 0.52734 3.1963 0.59277 5.041 0 0.16602-0.21387 0.24805-0.6416 0.24805-0.46191 0-0.70898-0.11523-0.74219-0.34668-0.16504-0.92188-0.63379-1.7949-1.4082-2.6191-0.77344-0.82324-1.6553-1.2354-2.6436-1.2354-2.3721 0-3.5586 0.97266-3.5586 2.916 0 0.49414 0.06641 0.93164 0.19824 1.3096 0.13086 0.37891 0.38574 0.74121 0.76563 1.0869 0.37891 0.3457 0.66797 0.59375 0.86523 0.74121 0.19727 0.14941 0.63477 0.41309 1.3096 0.79102 0.6748 0.37891 1.0947 0.61816 1.2598 0.7168 0.13184 0.06543 0.51855 0.28906 1.1621 0.66699 0.6416 0.37891 1.0947 0.65039 1.3584 0.81445 0.26367 0.16602 0.65039 0.44531 1.1611 0.83984 0.51074 0.39648 0.88086 0.75 1.1123 1.0635 0.22949 0.31348 0.45313 0.70996 0.66699 1.1865 0.21387 0.47754 0.32129 0.96387 0.32129 1.457 0 1.9453-0.75879 3.5664-2.2734 4.8691-1.5156 1.3008-3.294 1.9512-5.3369 1.9512-0.69238 0-1.3262-0.04102-1.9033-0.12305-0.57617-0.08398-1.2598-0.22266-2.0508-0.41992-0.79004-0.19922-1.4004-0.33008-1.8281-0.39648-0.19727-0.52637-0.3877-1.3496-0.56836-2.4707-0.18164-1.1191-0.27148-2.0098-0.27148-2.668 0.2627-0.19824 0.46094-0.29688 0.59277-0.29688 0.49414 0 0.75684 0.09863 0.79004 0.29688 0.19824 0.9873 0.81641 1.9512 1.8545 2.8906s2.166 1.4082 3.3848 1.4082c1.0537 0 1.919-0.28906 2.5947-0.86523 0.67383-0.5752 1.0127-1.4082 1.0127-2.4951 0-0.55957-0.10742-1.0791-0.32129-1.5576-0.21387-0.47656-0.56055-0.9043-1.0371-1.2832-0.47852-0.37891-0.92285-0.69336-1.335-0.93945-0.41211-0.24805-0.99707-0.56836-1.7539-0.96387-0.75879-0.39551-1.3184-0.70801-1.6807-0.93848-2.5693-1.4834-3.8545-3.2461-3.8545-5.2891 0-1.7783 0.7168-3.2266 2.1504-4.3477 1.4326-1.1211 3.1045-1.6807 5.0156-1.6807z"/>
	<path d="m559.93 351.38c-1.7129 0-3.0225 0.73242-3.9277 2.1992-0.90723 1.4658-1.3594 2.6768-1.3594 3.6318 0 0.23145 0.09863 0.34668 0.2959 0.34668h9.6367c0.16406 0 0.24707-0.16406 0.24707-0.49414 0-1.0547-0.44531-2.2656-1.334-3.6328-0.88965-1.3672-2.0762-2.0508-3.5586-2.0508zm0.49512-1.8291c1.5146 0 2.8486 0.28906 4.0029 0.86523 1.1523 0.57715 2.0332 1.3174 2.6426 2.2236 0.61035 0.90625 1.0547 1.8291 1.335 2.7686 0.2793 0.93848 0.41992 1.8701 0.41992 2.792 0 0.6582-0.09863 1.0625-0.29688 1.2109-0.19629 0.14844-0.57715 0.22168-1.1357 0.22168h-12.454c-0.26367 0-0.39453 0.08203-0.39453 0.24707 0 2.0762 0.625 3.9873 1.877 5.7324 1.252 1.7461 3.0644 2.6191 5.4365 2.6191 0.69238 0 1.3496-0.06543 1.9766-0.19727 0.625-0.13086 1.1611-0.28809 1.6055-0.4707 0.44531-0.17969 0.82324-0.36133 1.1367-0.54297 0.31348-0.18066 0.58496-0.35352 0.81641-0.51855l0.3457-0.24707c0.19727 0 0.2959 0.21484 0.2959 0.64258 0 0.26367-0.09863 0.56055-0.2959 0.88965-0.66016 0.92188-1.6309 1.7539-2.916 2.4951-1.2852 0.74219-2.6856 1.1113-4.2012 1.1113-2.7344 0-5.082-1.0293-7.041-3.0879-1.9619-2.0586-2.9404-4.5723-2.9404-7.5371 0-3.459 0.92969-6.1924 2.792-8.2031 1.8613-2.0098 4.1914-3.0146 6.9932-3.0146z"/>
</g>
</svg>
