<?xml version="1.0" encoding="UTF-8"?>
<!DOCTYPE svg PUBLIC "-//W3C//DTD SVG 1.1//EN" "http://www.w3.org/Graphics/SVG/1.1/DTD/svg11.dtd">
<!-- Creator: CorelDRAW 2019 (64-Bit Not for commercial use) -->
<svg xmlns="http://www.w3.org/2000/svg" xml:space="preserve" width="5in" height="5in" version="1.1" style="shape-rendering:geometricPrecision; text-rendering:geometricPrecision; image-rendering:optimizeQuality; fill-rule:evenodd; clip-rule:evenodd"
viewBox="0 0 5000 5000"
 xmlns:xlink="http://www.w3.org/1999/xlink"
 xmlns:xodm="http://www.corel.com/coreldraw/odm/2003">
 <defs>
  <style type="text/css">
   <![CDATA[
    .fil2 {fill:#B9955F;fill-rule:nonzero}
    .fil0 {fill:#2C3D73;fill-rule:nonzero}
    .fil1 {fill:#2C3D73;fill-rule:nonzero}
   ]]>
  </style>
 </defs>
 <g id="Layer_x0020_1">
  <metadata id="CorelCorpID_0Corel-Layer"/>
  <path class="fil0" d="M2386.73 2332.2c0,109.78 41.42,167.8 113.27,167.8 72.47,0 113.24,-57.3 113.24,-167.8 0,-110.48 -40.04,-168.46 -113.24,-168.46 -72.52,0 -113.27,57.99 -113.27,168.46zm325.95 0.69c0,140.86 -78.74,221.65 -212.68,221.65 -133.99,0 -212.69,-80.78 -212.69,-221.65 0,-140.85 78.7,-220.94 212.69,-220.94 133.94,0 212.68,80.1 212.68,220.94z"/>
  <path class="fil0" d="M2880.24 2121.62l146.34 312.59c0,0 3.02,7.02 9.79,5.09 5.88,-1.69 5.83,-8.41 5.83,-8.41l-1.76 -218.83c0,-37.98 -8.29,-53.87 -44.19,-53.87l-8.3 0 0 -36.57c29.71,0.67 58.7,1.37 88.4,1.37 30.35,0 60.06,-0.7 90.44,-1.37l0 36.57 -8.28 0c-35.23,0 -44.22,15.89 -44.22,53.87l0 332.79 -117.35 0 -148.13 -297.87c0,0 -2.8,-5.92 -8.89,-4.43 -6.09,1.46 -6.48,7.83 -6.48,7.83l2.63 203.35c0,37.98 8.26,54.56 44.17,54.56l8.29 0 0 36.57c-29.69,-1.35 -59.37,-1.35 -89.06,-1.35 -29.7,0 -59.39,0 -89.78,1.35l0 -36.57 8.29 0c35.23,0 44.89,-16.58 44.89,-54.56l0 -241.67c0,-37.98 -9.66,-53.87 -44.89,-53.87l-8.29 0 0 -36.57 170.54 0z"/>
  <path class="fil0" d="M3316.43 2122.98l116.69 0c14.49,0 58.66,-1.37 132.56,-1.37l0 127.72 -45.57 0c0,-4.15 0,-7.59 0,-11.06 0,-54.53 -15.2,-65.59 -66.28,-65.59l-30.41 0 0 281.04c0,37.98 8.99,54.56 44.2,54.56l14.5 0 0 36.57c-35.21,-1.35 -70.44,-1.35 -104.96,-1.35 -35.2,0 -70.43,0 -105.64,1.35l0 -36.57 14.52 0c35.2,0 44.19,-16.58 44.19,-54.56l0 -281.04 -37.3 0c-46.29,0 -62.17,12.44 -62.17,58.7 0,5.54 0,11.06 0.7,17.95l-43.5 0 0 -127.72c71.8,0 114.63,1.37 128.45,1.37z"/>
  <path class="fil0" d="M3689.41 2357.55l57.03 -161.81c0,0 1.69,-5.27 7.56,-5.27 5.89,0 7.59,5.23 7.59,5.23l52.92 162.5 -125.1 -0.65zm665.15 -234.56c-29.68,0 -58.7,-0.7 -88.38,-1.37l0 36.57 8.3 0c35.89,0 44.21,15.89 44.21,53.87l1.75 218.83c0,0 0.06,6.72 -5.85,8.41 -6.76,1.93 -9.77,-5.09 -9.77,-5.09l-146.35 -312.59 -170.54 0 0 36.57 8.3 0c35.19,0 44.85,15.89 44.85,53.87l0 241.67c0,37.98 -9.67,54.56 -44.85,54.56l-0.1 0c-33.16,-3.44 -42.81,-27.64 -58,-66.98l-122.2 -319.68 -113.24 0 -127.77 321.76c-16.58,42.11 -30.36,63.54 -58,64.91l0 36.57c29.01,-1.35 58.7,-1.35 89.78,-1.35 31.06,0 62.81,0 95.31,1.35l0 -36.57c-36.63,-2.07 -50.41,-5.54 -50.41,-30.39 0,-7.59 2.06,-15.18 4.81,-23.49l13.89 -43.73 161.45 0.04 13.16 34.72c4.84,15.2 6.93,25.54 6.93,31.76 0,22.8 -15.2,29.71 -52.46,31.08l0 36.57c15.09,-0.62 114.85,-1.92 177.92,-1.92 66.09,0 180.81,1.54 189.48,1.92l0 -36.57 -8.28 0c-35.88,0 -44.16,-16.58 -44.16,-54.56l-1.19 -203.35c0,0 0.36,-6.37 6.46,-7.83 6.1,-1.47 8.88,4.43 8.88,4.43l146.73 297.87 117.35 0 0 -332.79c0,-37.98 8.98,-53.87 44.19,-53.87l8.32 0 0 -36.57c-30.42,0.67 -60.09,1.37 -90.48,1.37z"/>
  <path class="fil0" d="M4648.51 2195.73l-58.02 162.46 125.76 0 -52.59 -162.5c0,0 -1.7,-5.23 -7.61,-5.23 -5.87,0 -7.54,5.27 -7.54,5.27zm69.44 -74.11l122.2 319.68c15.17,39.35 24.86,63.54 58.02,66.98l0 36.57c-32.49,-1.35 -65.62,-1.35 -98.09,-1.35 -33.1,0 -65.58,0 -98.72,1.35l0 -36.57c37.28,-1.37 52.47,-8.28 52.47,-31.08 0,-6.21 -2.06,-16.56 -6.9,-31.76l-11.7 -35.11 -162.3 -0.07 -14.5 44.14c-2.74,8.31 -4.82,15.9 -4.82,23.49 0,24.85 13.79,28.31 50.41,30.39l0 36.57c-32.48,-1.35 -64.24,-1.35 -95.31,-1.35 -31.08,0 -60.74,0 -89.75,1.35l0 -36.57c27.63,-1.37 41.42,-22.8 57.99,-64.91l127.76 -321.76 113.24 0z"/>
  <path class="fil0" d="M2010.64 2479.3c-6.02,0 -10.09,-8.02 -10.09,-8.02l-114.98 -210.69c0,0 -5.58,-10.45 -11.15,-10.45 -7.13,0 -7.08,10.13 -7.08,10.13l0 193.72c0,37.98 8.99,54.56 44.21,54.56l8.29 0 0 36.6c-28.33,-1.38 -58.02,-1.38 -88.38,-1.38 -29.71,0 -60.77,0 -92.55,1.38l0 -36.6 8.29 0c35.9,0 43.49,-16.58 44.19,-54.56l4.15 -241.69c0,-1.37 0,-2.04 0,-3.45 0,-35.22 -10.36,-50.43 -44.87,-50.43l-8.29 0 0 -36.56c31.06,0.69 62.14,1.37 93.9,1.37 31.06,0 48.69,-0.68 79.77,-1.37l87.32 195.52c0,0 1.72,4.93 7.49,4.93 5.76,0 7.28,-4.86 7.28,-4.86l93.9 -195.9c26.94,0.71 42.5,1.38 72.86,1.38 30.41,0 62.14,-0.67 95.99,-1.38l0 36.58 -8.99 0c-34.52,0 -44.19,14.5 -44.19,49.74 0,1.37 0,2.76 0,4.15l4.15 241.68c0.67,37.98 7.59,54.56 44.19,54.56l8.29 0 0 36.59c-31.76,-1.39 -62.84,-1.39 -93.22,-1.39 -30.39,0 -60.07,0 -89.75,1.39l0 -36.59 8.96 0c35.23,0 44.21,-16.58 44.21,-54.56l0 -195.26c0,0 0.8,-10.29 -6.96,-10.29 -5.67,0 -10.94,10.31 -10.94,10.31l-115.81 212.5c0,0 -4,8.33 -10.17,8.33z"/>
  <path class="fil0" d="M2206.84 2712.46l-29.7 83.16 64.65 0 -26.75 -83.22c0,0 -0.92,-2.83 -4.12,-2.83 -3.18,0 -4.07,2.89 -4.07,2.89zm37.59 -40.15l66.14 173.05c8.23,21.3 13.44,34.38 31.39,36.23l0 19.83c-17.56,-0.76 -35.5,-0.76 -53.08,-0.76 -17.93,0 -35.52,0 -53.44,0.76l0 -19.83c20.19,-0.72 28.41,-4.44 28.41,-16.79 0,-3.37 -1.13,-8.97 -3.76,-17.18l-8.19 -24.32 -84.09 0 -9.73 29.14c-1.5,4.5 -2.61,8.61 -2.61,12.69 0,13.5 7.42,15.35 27.3,16.45l0 19.83c-17.61,-0.76 -34.77,-0.76 -51.61,-0.76 -16.82,0 -32.89,0 -46.15,0.76l0 -19.83c12.53,-0.72 19.98,-12.31 28.96,-35.12l69.13 -174.16 61.32 0z"/>
  <path class="fil0" d="M1898 2739.41l-25.78 0c0.37,-2.63 0.37,-5.19 0.37,-7.44 0,-28.31 -17.02,-40.95 -47.93,-40.95 -26.82,0 -43.59,13.75 -43.59,33.51 0,15.98 8.96,24.94 28.7,32.76l47.28 18.99c32.39,13.02 48.41,32.75 48.41,60.31 0,43.21 -32.41,68.14 -92.71,68.14 -26.43,0 -53.98,-3.32 -81.93,-9.64l0 -64.43 27.2 0c0,1.83 -0.38,3.74 -0.38,5.18 0,29.42 17.88,44.33 52.5,44.33 27.93,0 43.18,-12.29 43.18,-34.65 0,-15.97 -7.81,-24.19 -26.05,-31.98l-43.59 -18.65c-36.09,-15.65 -53.97,-32.36 -53.97,-62.19 0,-40.96 32.02,-66.64 90.47,-66.64 23.83,0 49.9,3.76 77.82,10.45l0 62.91z"/>
  <path class="fil0" d="M4330.32 2743.34l-25.26 0c0.37,-2.57 0.37,-5.1 0.37,-7.34 0,-27.88 -16.69,-40.35 -46.96,-40.35 -26.23,0 -42.63,13.56 -42.63,33 0,15.76 8.76,24.6 28.1,32.31l46.24 18.72c31.73,12.82 47.42,32.26 47.42,59.43 0,42.59 -31.73,67.19 -90.77,67.19 -25.92,0 -52.88,-3.28 -80.21,-9.54l0 -63.49 26.63 0c0,1.81 -0.39,3.68 -0.39,5.1 0,29.04 17.5,43.72 51.37,43.72 27.37,0 42.31,-12.12 42.31,-34.17 0,-15.71 -7.63,-23.85 -25.48,-31.51l-42.65 -18.39c-35.37,-15.39 -52.88,-31.87 -52.88,-61.28 0,-40.36 31.35,-65.69 88.56,-65.69 23.35,0 48.87,3.7 76.24,10.29l0 62.02z"/>
  <path class="fil0" d="M1980.26 2675.13l62.61 0c7.75,0 31.46,-0.75 71.1,-0.75l0 64.89 -24.46 0c0,1.46 0,-0.43 0,-2.28 0,-29.29 -8.12,-35.19 -35.54,-35.19l-16.31 0 0 150.76c0,20.36 4.82,29.28 23.71,29.28l5.37 0 0 19.61c-16.48,-0.75 -35.37,-0.75 -53.9,-0.75 -18.89,0 -37.78,0 -56.66,0.75l0 -19.61 7.78 0c18.89,0 23.7,-8.92 23.7,-29.28l0 -150.76 -20 0c-24.83,0 -33.33,6.7 -33.33,31.52 0,2.92 0,5.9 0.38,5.94l-23.35 0 0 -64.89c38.54,0 61.5,0.75 68.91,0.75z"/>
  <path class="fil0" d="M2381.6 2675.13l62.6 0c7.76,0 31.44,-0.75 71.1,-0.75l0 65.23 -24.45 0c0,1.11 0,-0.78 0,-2.62 0,-29.29 -8.15,-35.19 -35.55,-35.19l-16.3 0 0 150.76c0,20.36 4.79,29.28 23.68,29.28l7.78 0 0 19.61c-18.87,-0.75 -37.75,-0.75 -56.28,-0.75 -18.9,0 -33.52,0 -52.43,0.75l0 -19.61 3.54 0c18.89,0 23.74,-8.92 23.74,-29.28l0 -150.76 -20.02 0c-24.84,0 -33.35,6.7 -33.35,31.52 0,2.92 0,5.9 0.36,6.29l-23.32 0 0 -65.23c38.5,0 61.49,0.75 68.91,0.75z"/>
  <path class="fil0" d="M2710.7 2675.13l0 62.59 -21.11 0 0 -10.02c0,-21.46 -12.24,-25.9 -39.66,-25.9l-45.54 0 0 70.75 12.94 0c24.45,0 30.74,-4.4 31.13,-29.61l20.02 0 0 82.2 -20.02 0c-1.11,-24.42 -6.68,-28.89 -29.63,-28.89l-14.44 0 0 78.55 41.47 0c37.06,0 45.2,-4.84 45.93,-44.45l20.75 0 0 71.1 -185.94 0 0 -19.61 4.46 0c19.99,0 23.7,-9.67 23.7,-29.28l0 -129.65c0,-20.33 -4.84,-28.87 -23.7,-28.87l-4.46 0 0 -18.91 184.1 0z"/>
  <path class="fil0" d="M2890.69 2675.13c16.67,0 33.32,-0.33 49.24,-0.75l0 19.66 -4.43 0c-20.39,0 -24.1,7.41 -24.1,28.87l0 99.68c0,35.53 11.48,52.21 46.32,52.21 33.67,0 47.74,-17.06 47.74,-52.98l0 -98.91c0,-20.33 -4.77,-28.87 -23.68,-28.87l-4.44 0 0 -19.66c15.9,0.42 31.11,0.75 46.32,0.75 15.53,0 30.38,-0.33 45.2,-0.75l0 19.66 -5.59 0c-13.33,0 -18.5,9.24 -18.5,28.87l0 95.61c0,60.71 -25.57,88.11 -90.74,88.11 -61.13,0 -91.15,-26.29 -91.15,-78.89l0 -104.83c0,-19.25 -3.3,-28.87 -18.14,-28.87l-4.41 0 0 -19.66c17.01,0.42 34.05,0.75 50.36,0.75z"/>
  <path class="fil0" d="M3405.43 2675.13c17.44,0 35.19,-0.33 52.96,-0.75l0 19.66 -4.83 0c-18.84,0 -23.69,8.54 -23.69,28.87l0 129.65c0,20.36 4.85,29.28 23.69,29.28l4.83 0 0 19.61c-17.77,-0.75 -35.52,-0.75 -52.96,-0.75 -17.79,0 -35.57,0 -53.32,0.75l0 -19.61 4.43 0c18.89,0 23.74,-8.92 23.74,-29.28l0 -129.65c0,-20.33 -4.85,-28.87 -23.74,-28.87l-4.43 0 0 -19.66c17.75,0.42 35.53,0.75 53.32,0.75z"/>
  <path class="fil0" d="M3706.54 2674.58l0 -0.75c-13.35,0.39 -27.81,0.75 -42.98,0.75 -15.59,0 -31.88,-0.35 -49.68,-0.75l0 19.64c18.18,0 26.71,3.7 26.71,13.35 0,2.58 -0.38,5.91 -1.48,9.61l-43.78 131.99c0,0 -1.27,2.87 -4.01,2.87 -2.76,0 -4.24,-2.92 -4.24,-2.92l-45.79 -132.65c-1.46,-4.08 -2.23,-7.39 -2.23,-10.02 0,-10.34 7.81,-11.48 26.72,-12.22l0 -19.64c-20.41,0.39 -38.91,0.75 -54.83,0.75 -15.94,0 -29.64,-0.35 -41.13,-0.75l0 19.64c12.63,1.11 17.76,8.91 23.71,25.18l68.87 185.91 53.71 0 66.7 -187.41c4.77,-14.06 10.38,-21.11 23.73,-23.68l0 -18.89z"/>
  <path class="fil0" d="M4012.59 2777.03l17.03 0c32.24,0 47.06,-9.66 47.06,-36.72 0,-28.11 -14.05,-38.51 -45.2,-38.51l-18.89 0 0 75.23zm16.31 -102.65c64.78,0 95.15,16.31 95.15,61.16 0,27.75 -14.03,45.92 -40.01,52.21 21.11,2.96 26.31,13.69 32.61,37.01 5.94,23.01 8.55,39.63 15.22,47.41 3.88,4.68 8.87,7.55 15.01,8.82 0,-0.41 -0.02,20.45 -0.02,20.45l-57.61 0c-13.75,-31.49 -14.8,-59.97 -21.88,-79.62 -5.17,-14.82 -16.63,-20.73 -37.01,-20.73l-17.78 0 0 51.47c0,20.36 4.82,29.28 23.68,29.28l4.83 0 0 19.61c-17.75,-0.75 -35.57,-0.75 -52.98,-0.75 -17.76,0 -35.56,0 -53.31,0.75l0 -19.61 4.43 0c18.89,0 23.73,-8.92 23.73,-29.28l0 -129.65c0,-20.33 -4.84,-28.87 -23.73,-28.87l-4.43 0 0 -19.66 94.09 0z"/>
  <path class="fil0" d="M4409.83 2675.13c17.35,0 35.19,-0.33 52.96,-0.75l0 19.66 -4.84 0c-18.87,0 -23.69,8.54 -23.69,28.87l0 129.65c0,20.36 4.82,29.28 23.69,29.28l4.84 0 0 19.61c-17.78,-0.75 -35.61,-0.75 -52.96,-0.75 -17.83,0 -35.62,0 -53.35,0.75l0 -19.61 4.41 0c18.89,0 23.74,-8.92 23.74,-29.28l0 -129.65c0,-20.33 -4.84,-28.87 -23.74,-28.87l-4.41 0 0 -19.66c17.73,0.42 35.52,0.75 53.35,0.75z"/>
  <path class="fil0" d="M4545.39 2675.13l62.57 0c7.81,0 31.52,-0.75 71.16,-0.75l0 64.63 -24.42 0c-0.04,1.72 -0.04,-0.17 -0.04,-2.02 0,-29.29 -8.17,-35.19 -35.54,-35.19l-16.31 0 0 150.76c0,20.36 4.83,29.28 23.72,29.28l7.76 0 0 19.61c-18.89,-0.75 -37.79,-0.75 -56.28,-0.75 -18.89,0 -37.77,0 -56.7,0.75l0 -19.61 7.79 0c18.91,0 23.7,-8.92 23.7,-29.28l0 -150.76 -19.98 0c-24.81,0 -33.34,6.7 -33.34,31.52 0,2.92 0,5.9 0.39,5.69l-23.33 0 0 -64.63c38.48,0 61.47,0.75 68.87,0.75z"/>
  <path class="fil0" d="M4731.54 2675.13c15.93,0 32.61,-0.33 49.22,-0.75l0 19.66c-0.72,0 -1.07,0 -1.82,0 -11.85,0 -17.03,3.34 -17.03,10.72 0,3.74 1.82,8.17 4.44,13.35l24.85 50.35c0,0 1.63,2.83 4.09,2.83 2.5,0 4.1,-2.73 4.1,-2.73l24.71 -48.62c2.6,-5.16 4.07,-10.38 4.07,-14.04 0,-8.53 -5.55,-11.87 -18.15,-11.87l0 -19.66c15.96,0.42 31.14,0.75 46.31,0.75 14.8,0 29.58,-0.33 44.02,-0.75l0 19.66 -1.43 0c-11.87,0 -18.86,8.54 -28.89,24.81l-55.2 90.37 0 45.92c0,19.66 3.71,26.7 25.21,26.7l5.17 0 0 19.61c-17.42,-0.75 -35.21,-0.75 -53.32,-0.75 -17.78,0 -35.97,0 -54.09,0.75l0 -19.61 5.19 0c21.13,0 25.2,-7.04 25.2,-26.7l0 -46.67 -51.89 -89.99c-8.85,-15.2 -16.29,-23.69 -31.45,-24.44l0 -19.66c15.16,0.42 30.75,0.75 46.67,0.75z"/>
  <path class="fil0" d="M3175.74 2674.8l79.22 169.17c0,0 1.64,3.82 5.33,2.77 3.15,-0.92 3.13,-4.54 3.13,-4.54l-0.96 -118.47c0,-20.56 -4.46,-29.13 -23.9,-29.13l-4.52 0 0 -19.8c16.08,0.33 31.79,0.75 47.88,0.75 16.43,0 32.5,-0.42 48.94,-0.75l0 19.8 -4.5 0c-19.04,0 -23.9,8.57 -23.9,29.13l0 180.16 -63.56 0 -79.42 -168.94c0,0 -1.52,-3.22 -4.79,-2.43 -3.31,0.83 -3.49,4.24 -3.49,4.24l0.62 117.8c0,20.55 4.48,29.52 23.91,29.52l4.5 0 0 19.8c-16.07,-0.75 -32.17,-0.75 -48.21,-0.75 -16.1,0 -32.16,0 -48.59,0.75l0 -19.8 4.48 0c19.07,0 24.3,-8.97 24.3,-29.52l0 -130.83c0,-20.56 -5.23,-29.13 -24.3,-29.13l-4.48 0 0 -19.8 92.3 0z"/>
  <path class="fil0" d="M3901.28 2675.13l0 62.59 -21.11 0 0 -10.02c0,-21.46 -12.24,-25.9 -39.65,-25.9l-45.56 0 0 70.75 12.96 0c24.46,0 30.75,-4.4 31.11,-29.61l20.04 0 0 82.2 -20.04 0c-1.12,-24.42 -6.65,-28.89 -29.63,-28.89l-14.43 0 0 78.55 41.48 0c37.06,0 45.18,-4.84 45.93,-44.45l20.75 0 0 71.1 -185.94 0 0 -19.61 4.44 0c20.02,0 23.7,-9.67 23.7,-29.28l0 -129.65c0,-20.33 -4.82,-28.87 -23.7,-28.87l-4.44 0 0 -18.91 184.1 0z"/>
  <path class="fil1" d="M2103.7 2978.41c-34.44,0 -56.2,28.96 -56.2,68.37 0,38.21 19.7,67.34 54.49,67.34 32.72,0 56.03,-23.48 56.03,-69.39 0,-35.13 -17.82,-66.31 -54.31,-66.31zm-0.69 20.73c19.36,0 28.44,22.44 28.44,46.61 0,26.56 -9.77,47.63 -28.61,47.63 -18.68,0 -28.79,-21.25 -28.79,-47.12 0,-24.16 9.08,-47.12 28.96,-47.12z"/>
  <path id="1" class="fil1" d="M2166.58 3016.79l0 18.68 12.68 0 0 76.76 25.36 0 0 -76.76 18.85 0 0 -18.68 -19.02 0c0,-9.59 0,-23.99 14.22,-23.99 3.94,0 6.85,0.69 9.25,1.54l1.89 -19.54c-3.77,-1.2 -8.74,-2.23 -15.08,-2.23 -18.68,0 -35.47,11.48 -35.47,40.27l0 3.94 -12.68 0z"/>
  <path id="2" class="fil1" d="M2227.23 3016.79l0 18.68 12.68 0 0 76.76 25.36 0 0 -76.76 18.85 0 0 -18.68 -19.02 0c0,-9.59 0,-23.99 14.22,-23.99 3.94,0 6.85,0.69 9.25,1.54l1.89 -19.54c-3.77,-1.2 -8.74,-2.23 -15.08,-2.23 -18.68,0 -35.47,11.48 -35.47,40.27l0 3.94 -12.68 0z"/>
  <path id="3" class="fil1" d="M2323.53 2990.74c0,-7.88 -5.48,-13.54 -13.71,-13.54 -7.88,0 -13.54,5.66 -13.54,13.54 0,7.71 5.48,13.54 13.54,13.54 7.88,0 13.71,-5.31 13.71,-13.54zm-26.22 26.04l0 95.44 25.36 0 0 -95.44 -25.36 0z"/>
  <path id="4" class="fil1" d="M2410.22 3018.5c-4.11,-1.71 -11.65,-3.6 -19.88,-3.6 -31.52,0 -50.03,21.93 -50.03,50.55 0,30.33 18.17,48.49 46.09,48.49 10.11,0 18.85,-2.06 23.13,-4.11l-2.74 -19.02c-4.11,1.89 -9.08,3.08 -15.42,3.08 -14.57,0 -25.36,-10.8 -25.36,-29.47 0,-16.79 9.26,-29.64 25.19,-29.64 7.02,0 11.65,1.54 14.91,3.08l4.11 -19.36z"/>
  <path id="5" class="fil1" d="M2501.89 3072.13c0.52,-2.74 0.69,-6.34 0.69,-10.11 0,-30.84 -15.08,-47.29 -38.21,-47.29 -27.93,0 -43.69,23.64 -43.69,51.06 0,29.64 16.79,48.15 46.26,48.15 11.82,0 22.96,-2.06 30.84,-5.48l-3.6 -17.48c-6.51,2.23 -13.88,3.94 -23.3,3.94 -13.71,0 -25.36,-6.51 -26.04,-22.79l57.06 0zm-57.06 -17.65c0.69,-9.42 5.82,-22.1 17.99,-22.1 12.51,0 16.45,12.17 16.28,22.1l-34.27 0z"/>
  <path id="6" class="fil1" d="M2596.99 3014.73c-25.87,0 -45.24,18.16 -45.24,50.2 0,31.02 18.51,49.18 44.21,49.18 21.24,0 44.55,-14.05 44.55,-50.37 0,-28.96 -16.79,-49 -43.52,-49zm17.82 49.52c0,16.96 -6.51,31.19 -18.5,31.19 -12.34,0 -18.85,-14.05 -18.85,-31.01 0,-14.57 4.97,-31.02 19.02,-31.02 13.02,0 18.33,15.94 18.33,30.84z"/>
  <path id="7" class="fil1" d="M2649.42 3016.79l0 18.68 12.68 0 0 76.76 25.36 0 0 -76.76 18.85 0 0 -18.68 -19.02 0c0,-9.59 0,-23.99 14.22,-23.99 3.94,0 6.85,0.69 9.25,1.54l1.89 -19.54c-3.77,-1.2 -8.74,-2.23 -15.08,-2.23 -18.68,0 -35.47,11.48 -35.47,40.27l0 3.94 -12.68 0z"/>
  <path id="8" class="fil1" d="M2752.05 3106.57c6.17,3.77 19.36,7.37 32.39,7.37 30.67,0 47.98,-16.79 47.98,-39.75 0,-17.3 -9.43,-29.47 -30.5,-38.89 -16.11,-7.37 -22.62,-11.65 -22.62,-21.07 0,-7.37 6,-14.56 19.36,-14.56 10.8,0 18.85,3.26 23.47,5.65l5.31 -20.73c-6.17,-3.09 -15.76,-6 -28.27,-6 -28.44,0 -45.41,16.62 -45.41,38.21 0,17.13 12.33,29.47 32.21,38.04 14.56,6.34 20.9,12 20.9,21.42 0,9.76 -7.37,16.45 -21.42,16.45 -10.62,0 -21.59,-3.26 -28.44,-7.37l-4.97 21.25z"/>
  <path id="9" class="fil1" d="M2842.01 3016.79l0 18.68 12.51 0 0 44.03c0,10.63 0.52,34.44 27.93,34.44 7.37,0 13.54,-0.85 16.96,-2.23l-0.34 -19.36c-2.57,0.51 -4.63,0.85 -8.22,0.85 -7.71,0 -11.31,-4.8 -11.31,-16.28l0 -41.46 21.08 0 0 -18.68 -21.08 0 0 -24.85 -25.02 7.37 0 17.48 -12.51 0z"/>
  <path id="10" class="fil1" d="M2971.55 3016.79l0 58.77c0,10.79 -7.37,17.82 -15.59,17.82 -10.45,0 -14.56,-9.08 -14.56,-23.48l0 -53.11 -25.36 0 0 56.89c0,28.61 12.33,40.44 30.5,40.44 14.73,0 23.47,-8.4 27.41,-14.57l0.52 0 1.2 12.68 22.1 0c-0.34,-8.05 -0.85,-17.82 -0.85,-29.13l0 -66.31 -25.36 0z"/>
  <path id="11" class="fil1" d="M3076.58 2974.46l0 51.57 -0.34 0c-3.77,-6.51 -11.82,-11.14 -22.96,-11.14 -20.56,0 -38.56,17.82 -38.56,50.37 0,28.96 15.42,48.83 37.01,48.83 11.65,0 21.93,-6 26.9,-15.42l0.51 0 1.2 13.54 22.28 0c-0.34,-7.02 -0.69,-17.65 -0.69,-27.24l0 -110.52 -25.36 0zm0 98.69c0,15.08 -9.59,20.56 -17.13,20.56 -11.99,0 -19.19,-11.48 -19.19,-28.79 0,-16.62 6.51,-29.98 19.53,-29.98 8.4,0 16.79,6.85 16.79,20.73l0 17.48z"/>
  <path id="12" class="fil1" d="M3200.97 3072.13c0.52,-2.74 0.69,-6.34 0.69,-10.11 0,-30.84 -15.08,-47.29 -38.21,-47.29 -27.93,0 -43.69,23.64 -43.69,51.06 0,29.64 16.79,48.15 46.26,48.15 11.82,0 22.96,-2.06 30.84,-5.48l-3.6 -17.48c-6.51,2.23 -13.88,3.94 -23.3,3.94 -13.71,0 -25.36,-6.51 -26.04,-22.79l57.06 0zm-57.06 -17.65c0.69,-9.42 5.82,-22.1 17.99,-22.1 12.51,0 16.45,12.17 16.28,22.1l-34.27 0z"/>
  <path id="13" class="fil1" d="M3241.75 3029.67l-1.2 -12.88 -21.93 0c0.34,8.43 0.69,17.5 0.69,28.67l0 66.77 25.36 0 0 -56.8c0,-14.48 9.43,-19.79 16.28,-19.79 10.79,0 14.56,9.25 14.56,20.91l0 55.69 25.36 0 0 -58.43c0,-26.73 -13.54,-38.89 -31.01,-38.89 -13.88,-0.17 -23.3,7.74 -27.59,14.76l-0.52 0z"/>
  <path id="14" class="fil1" d="M3315.09 3016.79l0 18.68 12.51 0 0 44.03c0,10.63 0.52,34.44 27.93,34.44 7.37,0 13.54,-0.85 16.96,-2.23l-0.34 -19.36c-2.57,0.51 -4.63,0.85 -8.22,0.85 -7.71,0 -11.31,-4.8 -11.31,-16.28l0 -41.46 21.08 0 0 -18.68 -21.08 0 0 -24.85 -25.02 7.37 0 17.48 -12.51 0z"/>
  <polygon id="15" class="fil1" points="3453.19,3090.98 3453.19,3054.31 3496.2,3054.31 3496.2,3033.58 3453.19,3033.58 3453.19,3001.71 3498.77,3001.71 3498.77,2980.46 3427.83,2980.46 3427.83,3112.22 3501.51,3112.22 3501.51,3090.98 "/>
  <path id="16" class="fil1" d="M3542.12 3029.67l-1.2 -12.88 -21.93 0c0.34,8.43 0.69,17.5 0.69,28.67l0 66.77 25.36 0 0 -56.8c0,-14.48 9.43,-19.79 16.28,-19.79 10.79,0 14.56,9.25 14.56,20.91l0 55.69 25.36 0 0 -58.43c0,-26.73 -13.54,-38.89 -31.01,-38.89 -13.88,-0.17 -23.3,7.74 -27.59,14.76l-0.52 0z"/>
  <path id="17" class="fil1" d="M3682.45 3028.27l-0.34 0c-4.28,-7.54 -11.99,-13.37 -23.99,-13.37 -21.07,0 -39.41,18.68 -39.41,50.2 0,26.04 14.22,46.43 36.84,46.43 10.45,0 19.02,-4.63 23.82,-12.17l0.34 0 0 7.02c0,18.33 -9.43,26.39 -23.65,26.39 -10.11,0 -19.02,-3.09 -24.67,-6.17l-4.97 19.36c7.54,4.28 19.02,6.51 30.15,6.51 46.44,0 48.15,-34.61 48.15,-53.29l0 -53.8c0,-13.31 0.34,-21.73 0.85,-28.61l-22.1 0 -1.03 11.48zm-3.08 44.18c0,16.13 -10.28,19.91 -16.11,19.91 -12,0 -19.02,-11.34 -19.02,-27.99 0,-17.93 7.71,-29.58 19.19,-29.58 8.57,0 15.94,7.02 15.94,19.19l0 18.48z"/>
  <path id="18" class="fil1" d="M3733 3039.41c6.17,-3.77 14.74,-6.51 23.47,-6.51 13.88,0 17.14,7.2 17.14,16.62 -30.33,0 -52.09,11.48 -52.09,35.98 0,15.42 10.96,28.61 28.61,28.61 10.62,0 19.88,-4.28 25.36,-11.82l0.52 0 1.54 9.94 22.79 0c-1.03,-5.83 -1.37,-14.22 -1.37,-22.62l0 -34.95c0,-20.91 -8.06,-39.75 -37.7,-39.75 -14.91,0 -26.73,4.28 -33.07,8.06l4.8 16.45zm41.3 40.09c0,12.17 -9.94,16.45 -15.94,16.45 -6.34,0 -11.99,-3.94 -11.99,-13.02 0,-13.88 14.22,-17.13 27.93,-17.13l0 13.7z"/>
  <path id="19" class="fil1" d="M3880.18 3028.27l-0.34 0c-4.28,-7.54 -11.99,-13.37 -23.99,-13.37 -21.07,0 -39.41,18.68 -39.41,50.2 0,26.04 14.22,46.43 36.84,46.43 10.45,0 19.02,-4.63 23.82,-12.17l0.34 0 0 7.02c0,18.33 -9.43,26.39 -23.65,26.39 -10.11,0 -19.02,-3.09 -24.67,-6.17l-4.97 19.36c7.54,4.28 19.02,6.51 30.15,6.51 46.44,0 48.15,-34.61 48.15,-53.29l0 -53.8c0,-13.31 0.34,-21.73 0.85,-28.61l-22.1 0 -1.03 11.48zm-3.08 44.18c0,16.13 -10.28,19.91 -16.11,19.91 -12,0 -19.02,-11.34 -19.02,-27.99 0,-17.93 7.71,-29.58 19.19,-29.58 8.57,0 15.94,7.02 15.94,19.19l0 18.48z"/>
  <path id="20" class="fil1" d="M3999.44 3030.84c-3.77,-9.77 -12.68,-15.94 -24.33,-15.94 -14.22,0 -22.62,7.88 -27.07,14.74l-0.52 0 -1.2 -12.85 -21.59 0c0.34,8.43 0.69,17.5 0.69,28.67l0 66.77 24.84 0 0 -57.52c0,-12.74 8.22,-19.24 15.25,-19.24 9.94,0 13.54,9.08 13.54,20.39l0 56.37 24.85 0 0 -57.91c0,-13.37 7.88,-18.85 14.91,-18.85 10.11,0 13.88,9.08 13.88,22.79l0 53.97 24.85 0 0 -57.91c0,-27.59 -12.85,-39.41 -29.47,-39.41 -10.62,0 -20.39,4.28 -28.27,15.94l-0.34 0z"/>
  <path id="21" class="fil1" d="M4156.04 3072.13c0.52,-2.74 0.69,-6.34 0.69,-10.11 0,-30.84 -15.08,-47.29 -38.21,-47.29 -27.93,0 -43.69,23.64 -43.69,51.06 0,29.64 16.79,48.15 46.26,48.15 11.82,0 22.96,-2.06 30.84,-5.48l-3.6 -17.48c-6.51,2.23 -13.88,3.94 -23.3,3.94 -13.71,0 -25.36,-6.51 -26.04,-22.79l57.06 0zm-57.06 -17.65c0.69,-9.42 5.82,-22.1 17.99,-22.1 12.51,0 16.45,12.17 16.28,22.1l-34.27 0z"/>
  <path id="22" class="fil1" d="M4196.82 3029.67l-1.2 -12.88 -21.93 0c0.34,8.43 0.69,17.5 0.69,28.67l0 66.77 25.36 0 0 -56.8c0,-14.48 9.43,-19.79 16.28,-19.79 10.79,0 14.56,9.25 14.56,20.91l0 55.69 25.36 0 0 -58.43c0,-26.73 -13.54,-38.89 -31.01,-38.89 -13.88,-0.17 -23.3,7.74 -27.59,14.76l-0.52 0z"/>
  <path id="23" class="fil1" d="M4270.16 3016.79l0 18.68 12.51 0 0 44.03c0,10.63 0.52,34.44 27.93,34.44 7.37,0 13.54,-0.85 16.96,-2.23l-0.34 -19.36c-2.57,0.51 -4.63,0.85 -8.22,0.85 -7.71,0 -11.31,-4.8 -11.31,-16.28l0 -41.46 21.08 0 0 -18.68 -21.08 0 0 -24.85 -25.02 7.37 0 17.48 -12.51 0z"/>
  <path class="fil0" d="M713.06 2963.82l0 -72.26 -5.67 0c-54.44,0 -71.91,-18 -71.91,-73.96 0,0 0,-236.1 0,-322.61 0,-12.56 22.38,-12.73 29.39,0.13 56.1,94.81 191.78,326.43 219,373.07 1.98,3.39 11.59,22 23.58,1.57 25.56,-43.57 163.19,-279.13 220.25,-374.8 8.04,-12.71 30.15,-12.71 30.05,0 0,86.81 -0.11,322.65 -0.11,322.65 0,57.36 -16.17,73.96 -72.17,73.96l-5.61 0 0 69.55c122.24,9.9 237.99,30.56 342.7,60.5l0 -130.05 -5.59 0c-54.59,0 -70.37,-16.6 -70.37,-73.96l0 -444.07c0,-58.02 15.12,-73.92 70.37,-73.92l5.59 0 0 -111.11 -316.91 0c0,0 -158.5,302.45 -200.9,382.4 -3.99,7.5 -13.15,7.59 -17.01,0.2 -41.54,-79.66 -199.37,-382.6 -199.37,-382.6l-318.28 0 -0.1 111.11 5.64 0c55.12,0 70.19,15.9 70.19,73.92l0 444.07c0,57.36 -15.74,73.96 -70.19,73.96l-5.64 0 0.1 138.13c104.31,-31.62 220.4,-54.03 342.18,-65.78 0.37,-0.04 0.78,-0.09 0.78,-0.09z"/>
  <path class="fil2" d="M1699.88 3139.34c-77.69,-48.09 -171.92,-87.61 -277.31,-117.73 -104.71,-29.94 -220.46,-50.59 -342.7,-60.5 -56.91,-4.59 -115.17,-6.92 -174.3,-6.81 -65.39,0.13 -130.06,3.52 -193.29,9.61 -121.78,11.75 -237.87,34.15 -342.18,65.78 -102.94,31.18 -194.53,71.18 -268.48,118.8 -3.37,2.23 -4.71,6.51 -3.21,10.2 1.52,3.7 5.49,5.82 9.46,5.04 241.87,-56.02 510.72,-84.42 799.26,-84.42 281.06,0 560.39,26.76 786.57,75.35 4.26,0.8 8.31,-1.55 9.65,-5.39 1.48,-3.27 0.06,-7.76 -3.49,-9.94z"/>
  <path class="fil2" d="M981.26 2046.93c0,0.01 0,0.16 0,0.2 0,0.07 -0.02,0.13 -0.04,0.26l0 0c0,-0.16 0.04,-0.33 0.04,-0.46zm-3.28 -4.13c-0.81,0.31 -2.25,1.17 -2.69,3.54 -0.04,0.17 -0.04,0.34 -0.04,0.51 -0.48,39.77 -59.66,138.91 -60.26,139.91 -0.07,0.13 -49.94,93.38 -49.94,93.38 -44.22,79.2 -18.18,138.48 26.59,219.89 0.52,0.95 1.52,1.56 2.62,1.56 1.11,0 2.11,-0.61 2.63,-1.58l129.3 -238.04c38.74,-74.35 2.9,-137.09 -31.77,-197.78l-11 -19.51c-0.18,-0.32 -0.46,-0.64 -0.74,-0.88 -1.11,-0.9 -2.94,-1.64 -4.7,-0.99z"/>
  <path class="fil2" d="M806.34 2331.17c0,-0.06 -0.02,-0.12 -0.02,-0.15 0,-0.08 0.02,-0.13 0.04,-0.25l0 0c0,0.13 -0.02,0.31 -0.02,0.44 0,-0.01 0,-0.01 0,-0.04zm86.99 -454.6c-1.1,0 -2.11,0.6 -2.65,1.57l-129.3 238.03c-38.71,74.36 -2.88,137.11 31.76,197.8l11.02 19.49c0.18,0.33 0.46,0.66 0.73,0.87 1.13,0.91 2.96,1.66 4.71,1.01 0.84,-0.31 2.28,-1.18 2.69,-3.56 0.05,-0.17 0.05,-0.33 0.05,-0.49 0.48,-39.77 59.67,-138.91 60.25,-139.91 0.1,-0.13 49.94,-93.39 49.94,-93.39 44.21,-79.17 18.19,-138.46 -26.56,-219.87 -0.52,-0.96 -1.55,-1.55 -2.63,-1.55z"/>
 </g>
</svg>
