<?xml version="1.0" encoding="UTF-8"?>
<!DOCTYPE svg PUBLIC "-//W3C//DTD SVG 1.1//EN" "http://www.w3.org/Graphics/SVG/1.1/DTD/svg11.dtd">
<!-- Creator: CorelDRAW 2019 (64-Bit Not for commercial use) -->
<svg xmlns="http://www.w3.org/2000/svg" xml:space="preserve" width="3.82222in" height="1.60963in" version="1.1" style="shape-rendering:geometricPrecision; text-rendering:geometricPrecision; image-rendering:optimizeQuality; fill-rule:evenodd; clip-rule:evenodd"
viewBox="0 0 3823.74 1610.27"
 xmlns:xlink="http://www.w3.org/1999/xlink"
 xmlns:xodm="http://www.corel.com/coreldraw/odm/2003">
 <defs>
  <style type="text/css">
   <![CDATA[
    .fil4 {fill:#FEFEFE}
    .fil3 {fill:#373435}
    .fil2 {fill:#91BEE5}
    .fil1 {fill:#7295CC}
    .fil0 {fill:#7187BE}
   ]]>
  </style>
 </defs>
 <g id="Layer_x0020_1">
  <metadata id="CorelCorpID_0Corel-Layer"/>
  <g id="navsea_vector_x0020__x0028_1_x0029_.eps">
   <path class="fil0" d="M3058.81 545.85c-10.01,-6.96 -20.1,-13.79 -30.21,-20.56l-2.54 20.56 32.75 0z"/>
   <path class="fil0" d="M3032.01 639.51c-8.12,-1.63 -20.27,-2.45 -36.49,-2.45l-202.62 0 -25.76 99.36 153.01 0c21.06,0 39.7,-3.26 54.29,-8.14l-10.97 43.17 0.45 0c21.06,0 38.9,-3.26 54.3,-8.14l-28.38 111.57c-14.58,-8.14 -35.65,-12.21 -64.83,-12.21l-190.46 0 -28.28 109.95 163.62 0c21.88,0 41.35,-4.08 59.17,-12.22l-18.5 47.24 3.12 0c15.5,0 29.73,-2.15 43.08,-6.24 3.98,-5.15 7.92,-10.17 12.02,-15.75l225.59 -336.63c-39.33,-32.8 -79.82,-64.03 -121.43,-93.52l-11.76 94.62c-11.34,-5.7 -21.07,-8.96 -29.17,-10.59z"/>
   <path class="fil0" d="M25.82 1610.27l117.93 0c-19.29,-75.54 -32.64,-147.44 -40.69,-215.96 -28.53,69.39 -54.53,141.22 -77.24,215.96z"/>
   <path class="fil0" d="M2703.44 349.58l-33.23 0 -2.95 0.36c12.96,-0 25.31,-0.01 36.95,-0.02 -0.24,-0.11 -0.51,-0.22 -0.78,-0.33z"/>
   <polygon class="fil0" points="3323.78,1462.05 3359.44,1462.05 3341.6,1405.86 "/>
   <path class="fil0" d="M2168.82 396.17l-1172.37 0c-90.56,101.15 -111.27,212.31 -86.94,325.09l120.61 -179.48c-8.1,-8.95 -14.59,-15.47 -20.26,-18.73 -4.86,-4.07 -13.78,-8.14 -25.12,-12.22l291.77 0 7.31 35.02 36.46 0 96.44 461.77c3.1,15.08 6.53,28.26 9.87,39.6l-63.36 -460.64c-4.04,-29.32 -12.15,-54.57 -23.5,-75.74l243.14 0c-6.02,11 -9.65,22.79 -11.48,35.02l55.25 0c-8.92,16.29 -12.97,34.21 -12.97,52.94 0,11.4 0.81,23.62 2.43,35.83l37.86 269.36 182.59 -309.27c14.58,-25.25 21.89,-49.68 21.89,-73.3 0,-2.44 0,-5.7 0,-10.59l140.21 0c-12.97,13.85 -23.51,26.07 -30.8,35.02l31.15 0c8.09,-6.99 16.79,-13.09 26.39,-17.92 23.5,-11.4 53.49,-17.1 89.15,-17.1l388.22 0 -3.74 35.02 47.5 0 -2.95 27.76c2.11,-10.52 3.77,-21.62 3.77,-33.45 0,-8.96 -2.44,-18.74 -5.68,-29.32l465.47 0c-70.37,-45.69 -143.6,-86.59 -219.1,-122.97l-535.71 0 59.15 -25.25c0,0 0,0 27.56,1.63 34.04,0.81 42.15,-14.66 42.15,-14.66 4.43,0 76.33,0.17 158.71,0.27l1.34 -1.09 -121.14 0 0 -12.21 136.07 0 37.16 -30.43c-224.07,-80.38 -463.83,-122.14 -708.96,-122.14 -315.15,0 -610.61,69.11 -872.44,200.52l1156.9 0 0 11.65z"/>
   <path class="fil0" d="M3634.98 1398.53l-28.36 0 0 92.84 28.36 0c24.33,0 32.43,-24.43 32.43,-48.05 0,-41.54 -20.26,-44.79 -32.43,-44.79z"/>
   <path class="fil0" d="M2449.27 637.06l-193.7 0c-11.36,0 -20.26,0.81 -25.12,2.45 -9.74,2.44 -17.85,12.21 -22.71,29.31 -1.58,6.01 -2.81,11.04 -3.85,15.48l154.59 0c29.19,0 49.45,5.7 62.43,17.09 7.22,6.57 12.51,14.01 16.66,21.92 11.08,2.84 19.95,7.16 26.29,13.1 16.29,14.14 24.12,31.78 25.41,51.47l34.5 -134.73c-7.32,-4.45 -14.42,-8.19 -21,-10.39 -14.58,-4.07 -32.42,-5.7 -53.48,-5.7z"/>
   <polygon class="fil0" points="1130.62,827.63 1103.32,693.1 1013.73,827.63 "/>
   <path class="fil0" d="M3638.23 1515.8l-60.78 0 0 -141.71 62.41 0c47.02,0 57.55,40.72 57.55,67.6 0,30.13 -12.16,74.11 -59.17,74.11zm-93.21 0l-29.16 0 -57.55 -100.99 -0.82 0 0 100.99 -27.57 0 0 -141.71 31.62 0 55.93 98.55 0 -98.55 27.54 0 0 141.71zm-168.58 0l-8.9 -29.32 -51.88 0 -9.72 29.32 -30.8 0 50.26 -141.71 33.22 0 50.25 141.71 -32.42 0zm-123.19 0l-27.54 0 0 -118.9 -26.74 118.9 -29.18 0 -25.13 -118.9 -0.82 0 0 118.9 -27.54 0 0 -141.71 42.94 0 25.95 111.58 25.12 -111.58 42.94 0 0 141.71zm-167.76 0l-27.56 0 0 -118.9 -0.8 0 -25.95 118.9 -29.18 0 -25.12 -118.9 -0.8 0 0 118.9 -27.57 0 0 -141.71 42.97 0 25.92 111.58 25.12 -111.58 42.96 0 0 141.71zm-230.98 3.26c-18.65,0 -68.09,-8.14 -68.09,-74.11 0,-66.78 49.44,-74.93 68.09,-74.93 18.64,0 68.07,8.14 68.07,74.93 0,65.96 -49.43,74.11 -68.07,74.11zm-148.33 -25.25c16.22,0 27.56,-9.78 30.8,-26.88l29.18 0c-5.66,30.95 -25.94,52.12 -60.78,52.12 -37.29,0 -64.85,-25.25 -64.85,-74.11 0,-49.68 29.18,-74.93 64.85,-74.93 42.15,0 59.98,29.31 60.78,50.49l-29.18 0c-2.42,-8.96 -6.48,-24.43 -30.8,-24.43 -14.58,0 -35.64,8.96 -35.64,48.87 0,26.05 10.52,48.86 35.64,48.86zm-258.53 25.25c-51.86,0 -60.78,-29.32 -60.78,-47.24l28.36 0c0,8.14 4.06,22.8 29.98,22.8 13.78,0 29.18,-3.25 29.18,-17.91 0,-11.41 -10.54,-13.85 -25.12,-17.92l-15.4 -3.25c-22.71,-5.7 -44.59,-10.59 -44.59,-41.54 0,-16.29 8.1,-43.98 54.31,-43.98 42.97,0 54.3,28.5 54.3,45.6l-27.56 0c-0.8,-5.7 -3.24,-21.17 -29.17,-21.17 -11.36,0 -24.32,4.07 -24.32,17.11 0,11.4 8.92,13.03 14.58,14.66l34.86 8.96c18.65,4.08 36.46,12.22 36.46,37.47 0,43.16 -42.94,46.42 -55.1,46.42zm-85.9 -3.26l-27.57 0 0 -118.9 -26.74 118.9 -29.18 0 -25.13 -118.9 -0.8 0 0 118.9 -27.56 0 0 -141.71 42.94 0 25.94 111.58 25.12 -111.58 42.97 0 0 141.71zm-163.72 0l-106.99 0 0 -141.71 103.75 0 0 25.25 -74.57 0 0 29.32 68.89 0 0 25.24 -68.89 0 0 36.65 77.8 0 0 25.25zm-128.87 -116.46l-42.15 0 0 116.46 -29.99 0 0 -116.46 -42.15 0 0 -25.25 114.28 0 0 25.25zm-183.98 119.72c-51.87,0 -60.79,-29.32 -60.79,-47.24l28.37 0c0,8.14 4.04,22.8 29.98,22.8 13.78,0 29.18,-3.25 29.18,-17.91 0,-11.41 -10.54,-13.85 -25.12,-17.92l-15.4 -3.25c-22.69,-5.7 -44.57,-10.59 -44.57,-41.54 0,-16.29 8.11,-43.98 54.3,-43.98 42.96,0 54.31,28.5 55.11,45.6l-28.36 0c-0.82,-5.7 -3.24,-21.17 -29.18,-21.17 -11.35,0 -24.32,4.07 -24.32,17.11 0,11.4 8.92,13.03 14.59,14.66l34.84 8.96c18.65,4.08 36.48,12.22 36.48,37.47 0,43.16 -42.95,46.42 -55.11,46.42zm-122.38 -56.19l0 52.93 -29.17 0 0 -53.75 -48.63 -87.96 34.85 0 29.18 61.08 27.56 -61.08 33.23 0 -47 88.78zm1856.79 -189.76l-268.26 0 -42.95 0.82c-263.4,7.33 -342.83,-8.95 -365.54,-16.29l0 18.74 -15.4 0 0 -74.11 14.6 0 0 17.1c44.56,-17.1 156.41,-20.36 156.41,-20.36l87.53 -1.63 38.91 -0.81c27.56,0 63.23,-13.03 63.23,-13.03 33.22,-17.1 71.32,-22.8 71.32,-22.8l45.36 -4.89c38.11,2.44 64.85,25.24 64.85,25.24 25.94,19.55 45.38,13.85 45.38,13.85l104.55 -0.82c9.97,0.24 19.01,0.65 27.55,1.14 -18.46,-32.9 -37.76,-65.01 -57.77,-96.42l-156.17 0c6.46,-13.63 10.72,-25.11 12.25,-35.01l-56.01 0c8.1,-16.29 12.96,-30.95 12.96,-42.36 0,-13.84 -2.42,-30.13 -5.68,-49.67l-4.77 -22.8 -222.14 0 -62.41 92.02c-12.16,17.1 -17.85,31.76 -17.85,43.98 0,3.26 0.82,8.14 1.64,13.84l-148.33 0c11.49,-9.39 23.19,-21.15 35.36,-35.01l-32.69 0 -14.01 35.01 -485.47 0c6.48,-10.58 12.16,-17.91 14.58,-23.61 1.83,-3.3 3.69,-7.2 5.58,-11.4l-60.21 0c-4.1,3.9 -8.47,7.72 -13.45,11.4 -15.4,10.58 -31.61,17.1 -48.63,19.54 -17.02,2.44 -44.57,4.07 -82.67,4.07l-363.09 0 4.83 -35.01 -48.6 0 15.4 -111.58c10.54,6.52 20.26,11.4 29.18,13.84 11.35,4.07 22.7,5.7 33.23,6.52 0.82,0 12.97,0 36.48,0l179.93 0c17.02,0 28.37,-1.63 33.22,-4.89 5.68,-4.89 10.54,-14.66 14.6,-30.94 0.92,-3.28 1.62,-6.22 2.17,-8.96l-7.85 0 -132.91 0c-30,0 -52.69,-4.07 -68.9,-13.03 -12.25,-7.04 -21.14,-16.63 -27,-28.15 -6.13,-1.95 -11.86,-4.15 -16.77,-6.86 -22.69,-13.04 -34.04,-33.4 -34.04,-61.89 0,-13.84 3.24,-35.83 10.54,-65.15l11.11 -42.75 -229.13 388.86 -230.99 0 -4.81 -35.01 -35.98 0c0.09,0.25 0.18,0.57 0.27,0.82 4.86,11.4 12.16,22.8 23.5,34.2l-259.35 0c7.1,-13.63 11,-25.11 12.34,-35.01l-56.11 0c8.92,-16.29 12.97,-30.95 12.97,-42.36 0,-13.84 -1.62,-30.13 -5.68,-49.67l-4.47 -22.8 -142.93 0c67.68,102.14 159.21,200.9 255.28,289.8l1577.92 0 0 11.65 -1565.24 0c93.82,85.63 191.12,161.62 274.2,222.06 0,-0.21 -0.04,-0.46 -0.04,-0.67l28.37 0c0,8.14 4.05,22.8 29.99,22.8 13.78,0 29.18,-3.25 29.18,-17.91 0,-11.41 -10.54,-13.85 -25.94,-17.92l-14.59 -3.25c-22.69,-5.7 -45.38,-10.59 -45.38,-41.54 0,-16.29 8.91,-43.98 54.31,-43.98 43.76,0 55.11,28.5 55.11,45.6l-28.36 0c-0.82,-5.7 -3.25,-21.17 -28.37,-21.17 -11.35,0 -25.12,4.07 -25.12,17.11 0,11.4 9.72,13.03 15.4,14.66l34.03 8.96c19.45,4.08 37.29,12.22 37.29,37.47 0,38.35 -34.43,45.17 -50.67,46.22 64.78,45.07 114.87,76.9 138.22,91.41l2065.79 0c-36.7,-120.65 -82.91,-234.21 -136.99,-340.8 -17.39,2.33 -39.31,3.64 -67.17,3.64z"/>
   <path class="fil0" d="M2854.51 1395.27c-16.22,0 -38.11,9.78 -38.11,49.68 0,39.09 21.88,49.67 38.11,49.67 16.2,0 38.08,-10.59 38.08,-49.67 0,-39.9 -21.88,-49.68 -38.08,-49.68z"/>
   <path class="fil0" d="M3303.33 747.31l-53.49 80.32 116.88 0 -4 -20.16c-19.4,-20.55 -39.21,-40.58 -59.39,-60.17z"/>
   <path class="fil1" d="M475.66 545.85l31.7 0 116.48 338.18 77.23 -300.71c3.24,-13.03 4.86,-27.69 4.86,-43.16 0,-8.96 -1.62,-18.74 -4.86,-29.32l125.63 0c-6.49,9.78 -11.35,17.92 -14.59,23.62 -1.83,3.3 -3.7,7.2 -5.58,11.4l63.93 0c-6.49,9.77 -12.15,17.92 -14.59,22.81 -8.91,15.47 -17.01,39.09 -25.93,71.67l-82.61 322.29 162.19 -241.35c-24.32,-112.79 -3.61,-223.94 86.94,-325.09l-440.28 0c-51.67,34.87 -100.62,72.98 -146.01,114.66l53.43 0 12.06 35.02z"/>
   <path class="fil1" d="M2059.43 23.01c0,0 -903.87,-18.71 -1485.79,361.51l433.66 0c149.01,-155.83 468.62,-286.77 1052.13,-361.51z"/>
   <path class="fil1" d="M741.35 1063.81l-19.97 0 -7.21 28.11c8.77,-8.09 17.79,-17.3 27.18,-28.11z"/>
   <path class="fil1" d="M1389.16 1515.8l-9.73 -29.32 -51.87 0 -9.72 29.32 -30.8 0 50.24 -141.71 34.05 0 49.44 141.71 -31.61 0zm-119.15 0l-106.98 0 0 -141.71 103.74 0 0 25.25 -75.38 0 0 29.32 68.89 0 0 25.24 -68.89 0 0 36.65 78.61 0 0 25.25zm-189.65 3.26c-51.06,0 -59.98,-29.32 -59.98,-47.24l28.37 0c0,8.14 4.05,22.8 29.98,22.8 13.78,0 29.18,-3.25 29.18,-17.91 0,-11.41 -10.54,-13.85 -25.12,-17.92l-15.4 -3.25c-22.69,-5.7 -44.57,-10.59 -44.57,-41.54 0,-16.29 8.11,-43.98 54.31,-43.98 42.95,0 54.29,28.5 54.29,45.6l-27.55 0c-0.81,-5.7 -3.24,-21.17 -29.18,-21.17 -11.34,0 -24.31,4.07 -24.31,17.11 0,11.4 8.91,13.03 14.58,14.66l34.04 8.96c19.45,4.08 37.29,12.22 37.29,37.47 0,43.16 -42.96,46.42 -55.92,46.42zm-198.57 -3.26l-99.69 0 0 -141.71 29.17 0 0 115.64 70.52 0 0 26.07zm-154.8 0l-8.92 -29.32 -51.87 0 -9.73 29.32 -31.61 0 50.25 -141.71 34.04 0 50.25 141.71 -32.41 0zm-161.29 0l-28.37 0 -47.82 -141.71 31.61 0 30.8 107.5 30.8 -107.5 30.8 0 -47.81 141.71zm-119.95 0l-8.92 -29.32 -51.87 0 -9.73 29.32 -30.8 0 50.24 -141.71 34.04 0 49.44 141.71 -32.42 0zm-123.19 0l-29.18 0 -57.54 -100.99 -0.82 0 0 100.99 -26.74 0 0 -141.71 30.8 0 55.92 98.55 0 -98.55 27.55 0 0 141.71zm1291.9 3.26c-50.46,0 -59.72,-28.61 -59.93,-46.57 -83.08,-60.44 -180.38,-136.43 -274.2,-222.06l-1186.47 0c0.39,46.22 3.33,94.12 9.18,143.87 8.06,68.53 21.41,140.43 40.69,215.96l1614.2 0c-23.35,-14.51 -73.44,-46.35 -138.22,-91.41 -2.04,0.13 -3.91,0.2 -5.26,0.2z"/>
   <polygon class="fil1" points="410.92,1405.86 393.09,1462.05 428.74,1462.05 411.72,1405.86 "/>
   <polygon class="fil1" points="1353.5,1405.86 1335.67,1462.05 1371.33,1462.05 1354.31,1405.86 "/>
   <polygon class="fil1" points="673.51,1462.05 709.98,1462.05 692.15,1405.86 "/>
   <path class="fil1" d="M870.45 1041.01c-11.35,17.1 -17.83,31.76 -17.83,43.98 0,3.26 0.81,8.14 1.62,13.84l-141.84 0 -5.67 0 -228.56 0 -11.87 -35.01 -31.09 0 -112.6 -330.44 -75.43 292.16c-3.25,14.66 -5.68,28.5 -5.68,43.98 0,8.96 2.43,18.74 5.68,29.31l-125.62 0c7.29,-10.58 12.15,-17.91 14.58,-23.61 2,-3.3 3.96,-7.2 5.9,-11.4l-34.36 0c-8.98,55.3 -13.59,113.64 -13.67,174.97l1173.64 0c-96.07,-88.9 -187.6,-187.66 -255.29,-289.8l-79.52 0 -62.41 92.02z"/>
   <polygon class="fil2" points="1280.34,1250.43 2845.58,1250.43 2845.58,1238.78 1267.67,1238.78 94.03,1238.78 -0,1238.78 -0,1250.43 93.87,1250.43 "/>
   <polygon class="fil2" points="996.45,396.17 2168.82,396.17 2168.82,384.51 1011.92,384.51 1007.3,384.51 573.64,384.51 -0,384.51 -0,396.17 556.17,396.17 "/>
   <path class="fil3" d="M2670.22 349.58l33.23 0 79.73 0c53.64,-0.38 134.08,-0.58 205.43,-0.69l-109.78 -36.77 -70.26 0 41.08 15.47 -179.43 21.99z"/>
   <path class="fil3" d="M2704.22 349.92c-11.64,0.01 -23.99,0.02 -36.95,0.02l-149.92 18.37 22.54 -18.46c-82.38,-0.11 -154.28,-0.27 -158.71,-0.27 0,0 -8.11,15.47 -42.15,14.66 -27.56,-1.63 -27.56,-1.63 -27.56,-1.63l-59.15 25.25 535.71 0 270.71 0c6.48,-14.67 70.5,-30.96 85.09,-39.09 0,0 -71.29,0 -155.23,0.13 -71.35,0.11 -151.8,0.31 -205.43,0.69 -13.39,0.19 -42.43,0.29 -78.96,0.33z"/>
   <polygon class="fil3" points="2420.08,336.55 2420.08,348.77 2541.23,348.77 2556.16,336.55 "/>
   <polygon class="fil3" points="2541.23,348.77 2539.89,349.85 2517.35,368.31 2667.27,349.94 2670.22,349.58 2849.65,327.59 2808.57,312.12 2739.41,286.05 2617.84,286.05 2593.31,306.13 2556.16,336.55 "/>
   <path class="fil3" d="M2347.96 0.2l-241.53 0 0.8 32.57 242.34 0c60.78,2.45 87.53,-16.29 87.53,-16.29 -22.62,-14.36 -60.1,-16.41 -78.41,-16.49l-2.23 0c-5.3,0.02 -8.51,0.2 -8.51,0.2z"/>
   <path class="fil3" d="M3515.04 1194.93c0,0 -19.44,5.7 -45.38,-13.85 0,0 -26.75,-22.8 -64.85,-25.24l-45.36 4.89c0,0 -38.11,5.7 -71.33,22.8 0,0 -35.67,13.03 -63.23,13.03l-38.91 0.81 -87.53 1.63c0,0 -111.85,3.26 -156.42,20.36l0 -17.1 -14.6 0 0 74.11 15.4 0 0 -18.74c22.7,7.34 102.13,23.62 365.54,16.29l42.95 -0.82 268.26 0c27.85,0 49.78,-1.31 67.17,-3.64 44.83,-6.01 58.46,-19.02 58.46,-35.45 0.01,-20.51 -21.82,-34.39 -98.09,-38.77 -8.53,-0.49 -17.57,-0.89 -27.55,-1.14l-104.55 0.82z"/>
   <path class="fil4" d="M3362.72 807.48l-22.89 -114.97 -36.5 54.8c20.18,19.59 39.98,39.62 59.39,60.17z"/>
   <path class="fil4" d="M2783.18 349.58l-79.73 0c0.27,0.11 0.53,0.22 0.78,0.33 36.53,-0.05 65.57,-0.15 78.96,-0.33z"/>
   <polygon class="fil4" points="507.36,545.85 475.66,545.85 610.29,936.77 623.84,884.03 "/>
   <path class="fil4" d="M203.43 991.32c-3.24,13.84 -5.68,28.51 -5.68,43.16 0,8.96 2.44,18.73 5.68,29.32l-61.37 0c-1.94,4.2 -3.9,8.11 -5.9,11.4 -2.43,5.7 -7.29,13.03 -14.58,23.61l125.62 0c-3.25,-10.58 -5.68,-20.36 -5.68,-29.31 0,-15.48 2.43,-29.32 5.68,-43.98l75.43 -292.16 -30.04 -88.17 -89.15 346.12z"/>
   <path class="fil4" d="M478.18 1098.82l228.56 0c2.43,-2.06 4.96,-4.62 7.44,-6.9l7.21 -28.11 -52.74 0 -5.68 0 -196.65 0 11.87 35.01z"/>
   <path class="fil4" d="M855.86 568.66c2.44,-4.89 8.11,-13.04 14.59,-22.81l-63.93 0c-6.51,14.48 -13.27,34.2 -19.54,59.45l-116.54 451.59c18.98,-17.51 39.21,-41.01 61.43,-71.26l15.46 -23.01 82.61 -322.29c8.92,-32.58 17.02,-56.19 25.93,-71.67z"/>
   <polygon class="fil4" points="1103.32,693.1 1087.66,615.89 946.64,827.63 1013.73,827.63 "/>
   <path class="fil4" d="M889.91 913.95l-63.21 92.03c-11.35,17.92 -17.02,32.58 -17.02,43.98 0,3.26 0,8.14 1.61,13.85l-69.93 0c-9.39,10.81 -18.41,20.02 -27.18,28.11 -2.47,2.28 -5.01,4.84 -7.44,6.9l5.67 0 141.84 0c-0.82,-5.7 -1.62,-10.58 -1.62,-13.84 0,-12.21 6.48,-26.88 17.83,-43.98l62.41 -92.02 79.52 0 142.93 0 -6.87 -35.03 -258.54 0z"/>
   <path class="fil4" d="M1426.58 1047.21c-3.34,-11.34 -6.77,-24.52 -9.87,-39.6l-96.44 -461.77 -36.46 0 89.14 426.75c4.86,24.43 10.53,43.15 15.39,57 4.87,11.41 12.97,22.81 23.51,34.21l-203.25 0c-1.34,9.9 -5.23,21.39 -12.34,35.01l259.35 0c-11.34,-11.4 -18.64,-22.8 -23.5,-34.2 -0.09,-0.24 -0.18,-0.56 -0.27,-0.82l-2.98 0 -2.28 -16.6z"/>
   <path class="fil4" d="M1572.32 599.6l50.25 357.52 31.37 -53.14 -37.86 -269.36c-1.63,-12.21 -2.43,-24.43 -2.43,-35.83 0,-18.73 4.05,-36.65 12.97,-52.94l-55.25 0c-0.88,5.88 -1.48,11.84 -1.48,17.92 0,11.41 0.81,23.62 2.43,35.83z"/>
   <path class="fil4" d="M1970.27 580.87c7.95,-14.1 17.69,-25.5 28.72,-35.03l-31.15 0c-6.48,8.96 -16.2,23.62 -28.36,44.79l-279.62 473.17 -192.03 0 4.81 35.01 230.99 0 229.13 -388.86 22.12 -85.11c4.86,-19.56 9.73,-34.21 15.4,-43.98z"/>
   <path class="fil4" d="M2458.98 608.56c-14.58,-4.89 -32.42,-6.52 -53.48,-6.52l-193.72 0c-11.34,0 -20.24,0.82 -25.12,2.45 -9.72,2.44 -17,12.22 -21.88,29.31 -4.86,16.29 -7.29,26.06 -7.29,30.14 0,13.84 11.34,20.36 33.23,20.36l13.17 0c1.04,-4.44 2.28,-9.46 3.85,-15.48 4.87,-17.1 12.97,-26.87 22.71,-29.31 4.86,-1.63 13.76,-2.45 25.12,-2.45l193.7 0c21.06,0 38.9,1.63 53.48,5.7 6.59,2.2 13.68,5.95 21,10.39l17.9 -69.85c0.76,-3.06 1.25,-6.48 1.91,-9.7l2.95 -27.76 -47.5 0 -8.42 79c-11.34,-8.14 -21.89,-13.85 -31.61,-16.29z"/>
   <path class="fil4" d="M2170.46 892.79l-23.51 0.81 -132.92 0c-20.89,0 -38.04,-2.5 -52.12,-6.98 5.85,11.52 14.75,21.11 27,28.15 16.22,8.96 38.91,13.03 68.9,13.03l132.91 0 7.86 0c1.41,-6.79 1.86,-11.99 1.86,-15.47 0,-13.03 -9.72,-19.54 -29.98,-19.54z"/>
   <path class="fil4" d="M2416.85 1040.19c8.92,-14.66 17.02,-38.28 25.94,-70.86l46.47 -181.44c-1.29,-19.69 -9.13,-37.33 -25.41,-51.47 -6.33,-5.95 -15.21,-10.26 -26.29,-13.1 5.6,10.73 8.82,22.43 9.27,35.09 0,10.58 -2.42,24.43 -7.3,43.97l-36.46 140.08c-8.1,29.32 -14.58,49.68 -21.06,59.45 -6.5,14.67 -17.84,26.88 -33.25,38.28 -15.38,10.59 -31.6,17.1 -48.63,20.37 -17.02,2.43 -44.57,3.25 -82.67,3.25l-314.49 0 -4.83 35.01 363.09 0c38.11,0 65.64,-1.63 82.67,-4.07 17.02,-2.44 33.22,-8.96 48.63,-19.54 4.98,-3.68 9.35,-7.5 13.45,-11.4l-3.71 0c7.28,-10.59 12.14,-17.92 14.58,-23.62z"/>
   <path class="fil4" d="M3017.4 615.89c-11.34,-6.52 -20.26,-9.77 -28.37,-11.4 -8.92,-1.63 -21.08,-2.45 -37.28,-2.45l-202.62 0 -34.84 134.38 52.85 0 25.76 -99.36 202.62 0c16.22,0 28.37,0.81 36.49,2.45 8.1,1.62 17.81,4.89 29.16,10.59l11.77 -94.62 1.21 -9.62 -15.34 0 -32.75 0 -8.66 70.04z"/>
   <path class="fil4" d="M2925.01 862.65c29.19,0 50.24,4.07 64.83,12.21l28.38 -111.57c-15.4,4.89 -33.24,8.14 -54.3,8.14l-0.45 0 -17.39 68.41c-13.77,-8.14 -35.66,-12.22 -64.83,-12.22l-190.45 0 -37.29 144.97 52.77 0 28.28 -109.95 190.46 0z"/>
   <path class="fil4" d="M2956.76 1001.38c-13.35,4.09 -27.58,6.24 -43.08,6.24l-3.12 0 -22.02 56.2 -422.35 0c-1.89,4.2 -3.75,8.11 -5.58,11.4 -2.42,5.7 -8.1,13.03 -14.58,23.61l485.47 0 14.01 -35.01 -45.61 0c17.64,-15 36.48,-36.04 56.87,-62.43z"/>
   <path class="fil4" d="M3625.27 1029.6c4.86,11.41 12.15,22.81 23.5,34.21l-203.33 0c-1.52,9.9 -5.79,21.39 -12.25,35.01l156.17 0 103.18 0c-11.34,-11.4 -19.44,-22.8 -23.51,-34.2 -5.68,-13.85 -10.54,-33.39 -16.2,-57.01l-95.63 -461.77 -36.47 0 89.13 426.75c4.86,24.43 10.54,43.15 15.4,57z"/>
   <polygon class="fil4" points="3182.74,827.63 3249.84,827.63 3303.33,747.31 3339.84,692.51 3324.57,615.89 "/>
   <path class="fil4" d="M3126.01 913.95l-62.41 92.03c-11.34,17.92 -17.84,32.58 -17.84,43.98 0,3.26 0.82,8.14 1.62,13.85l-69.2 0c-12.16,13.86 -23.87,25.62 -35.36,35.01l148.34 0c-0.82,-5.7 -1.64,-10.58 -1.64,-13.84 0,-12.21 5.68,-26.88 17.84,-43.98l62.41 -92.02 222.14 0 -7.38 -35.03 -258.53 0z"/>
   <path class="fil3" d="M203.43 1063.81c-3.24,-10.59 -5.68,-20.36 -5.68,-29.32 0,-14.66 2.44,-29.32 5.68,-43.16l89.15 -346.12 30.04 88.17 112.6 330.44 31.09 0 196.65 0c2.44,-2.08 4.98,-4.63 7.46,-6.93l116.54 -451.59c6.28,-25.25 13.04,-44.96 19.54,-59.45 1.88,-4.2 3.75,-8.1 5.58,-11.4 3.24,-5.7 8.1,-13.84 14.59,-23.62l-125.63 0c3.24,10.59 4.86,20.36 4.86,29.32 0,15.47 -1.62,30.13 -4.86,43.16l-77.23 300.71 -13.54 52.74 -134.63 -390.92 -12.06 -35.02 -53.43 0 -192.95 0c4.05,10.59 5.68,20.36 5.68,29.32 0,15.47 -1.62,30.13 -5.68,43.16l-98.88 386.02c-8.91,32.58 -17.01,56.2 -25.94,70.86 -2.42,5.7 -7.29,13.03 -14.58,23.62l29.89 0 34.36 0 61.37 0z"/>
   <path class="fil3" d="M1087.66 615.89l15.66 77.21 27.29 134.53 -116.89 0 -67.09 0 141.02 -211.75zm300.69 413.71c-4.86,-13.84 -10.53,-32.57 -15.39,-57l-89.14 -426.75 -7.31 -35.02 -291.77 0c11.35,4.07 20.26,8.14 25.12,12.22 5.67,3.26 12.16,9.78 20.26,18.73l-120.61 179.48 -162.19 241.35 -15.46 23.01c-22.21,30.25 -42.45,53.75 -61.43,71.26 -2.49,2.3 -5.03,4.85 -7.46,6.93l5.68 0 52.74 0 19.97 0 69.93 0c-1.61,-5.7 -1.61,-10.59 -1.61,-13.85 0,-11.4 5.67,-26.06 17.02,-43.98l63.21 -92.03 258.54 0 6.87 35.03 4.47 22.8c4.06,19.54 5.68,35.83 5.68,49.67 0,11.41 -4.05,26.07 -12.97,42.36l56.11 0 203.25 0c-10.54,-11.4 -18.64,-22.8 -23.51,-34.21z"/>
   <path class="fil3" d="M1939.47 590.64c12.16,-21.18 21.88,-35.83 28.36,-44.79 7.29,-8.95 17.83,-21.17 30.8,-35.02l-140.21 0c0,4.89 0,8.14 0,10.59 0,23.62 -7.3,48.05 -21.89,73.3l-182.59 309.27 -31.37 53.14 -50.25 -357.52c-1.62,-12.21 -2.43,-24.43 -2.43,-35.83 0,-6.08 0.6,-12.03 1.48,-17.92 1.83,-12.24 5.46,-24.02 11.48,-35.02l-243.14 0c11.34,21.18 19.45,46.42 23.5,75.74l63.36 460.64 2.28 16.6 2.98 0 35.98 0 192.03 0 279.62 -473.17z"/>
   <path class="fil3" d="M2300.13 1060.56c17.02,-3.27 33.24,-9.78 48.63,-20.37 15.4,-11.4 26.75,-23.61 33.25,-38.28 6.48,-9.77 12.96,-30.13 21.06,-59.45l36.46 -140.08c4.88,-19.54 7.3,-33.39 7.3,-43.97 -0.45,-12.66 -3.67,-24.36 -9.27,-35.09 -4.14,-7.91 -9.44,-15.35 -16.66,-21.92 -12.98,-11.4 -33.24,-17.09 -62.43,-17.09l-154.59 0 -13.17 0c-21.88,0 -33.23,-6.52 -33.23,-20.36 0,-4.08 2.43,-13.85 7.29,-30.14 4.88,-17.1 12.16,-26.87 21.88,-29.31 4.88,-1.63 13.78,-2.45 25.12,-2.45l193.72 0c21.06,0 38.91,1.63 53.48,6.52 9.72,2.44 20.27,8.14 31.6,16.29l8.43 -79 3.74 -35.02 -388.22 0c-35.67,0 -65.65,5.7 -89.15,17.1 -9.61,4.82 -18.31,10.93 -26.39,17.92 -11.03,9.53 -20.77,20.93 -28.72,35.03 -5.67,9.77 -10.54,24.42 -15.4,43.98l-22.12 85.11 -11.11 42.75c-7.3,29.32 -10.54,51.31 -10.54,65.15 0,28.5 11.34,48.86 34.04,61.89 4.91,2.71 10.63,4.92 16.77,6.86 14.08,4.46 31.23,6.98 52.12,6.98l132.92 0 23.51 -0.81c20.26,0 29.98,6.51 29.98,19.54 0,3.48 -0.45,8.68 -1.87,15.47 -0.56,2.74 -1.25,5.68 -2.17,8.96 -4.06,16.28 -8.92,26.05 -14.6,30.94 -4.86,3.25 -16.2,4.89 -33.22,4.89l-179.93 0c-23.51,0 -35.66,0 -36.48,0 -10.53,-0.82 -21.88,-2.45 -33.23,-6.52 -8.92,-2.44 -18.64,-7.33 -29.18,-13.84l-15.4 111.58 48.6 0 314.49 0c38.11,0 65.65,-0.82 82.67,-3.25z"/>
   <path class="fil3" d="M2547.34 540.15c0,11.84 -1.66,22.93 -3.77,33.45 -0.66,3.23 -1.15,6.64 -1.91,9.7l-17.9 69.85 -34.5 134.73 -46.47 181.44c-8.92,32.58 -17.02,56.2 -25.94,70.86 -2.44,5.7 -7.3,13.03 -14.58,23.62l3.71 0 60.21 0 422.35 0 22.02 -56.2 18.5 -47.24c-17.82,8.14 -37.28,12.22 -59.17,12.22l-163.62 0 -52.77 0 37.29 -144.97 190.45 0c29.17,0 51.07,4.07 64.83,12.22l17.4 -68.41 10.97 -43.17c-14.58,4.88 -33.23,8.14 -54.29,8.14l-153.01 0 -52.85 0 34.84 -134.38 202.62 0c16.2,0 28.36,0.82 37.28,2.45 8.11,1.63 17.02,4.88 28.37,11.4l8.66 -70.04 2.54 -20.56 1.78 -14.46 -23.25 0 -465.47 0c3.24,10.59 5.68,20.36 5.68,29.32z"/>
   <path class="fil3" d="M3362.72 807.48l4 20.16 -116.88 0 -67.1 0 141.83 -211.75 15.26 76.62 22.89 114.97zm-405.96 193.9c-20.38,26.4 -39.23,47.44 -56.87,62.43l45.61 0 32.69 0 69.2 0c-0.8,-5.7 -1.62,-10.59 -1.62,-13.85 0,-11.4 6.5,-26.06 17.84,-43.98l62.41 -92.03 258.53 0 7.38 35.03 4.77 22.8c3.26,19.54 5.68,35.83 5.68,49.67 0,11.41 -4.86,26.07 -12.96,42.36l56.01 0 203.33 0c-11.34,-11.4 -18.65,-22.8 -23.51,-34.21 -4.85,-13.84 -10.54,-32.57 -15.4,-57l-89.13 -426.75 -7.32 -35.02 -292.57 0c12.14,4.07 21.06,8.14 25.92,12.22 5.68,3.26 12.16,9.78 19.46,18.73l-71.86 107.21 -225.59 336.63c-4.1,5.58 -8.04,10.6 -12.02,15.75z"/>
   <polygon class="fil3" points="295.02,1472.64 239.1,1374.09 208.3,1374.09 208.3,1515.8 235.04,1515.8 235.04,1414.81 235.85,1414.81 293.39,1515.8 322.57,1515.8 322.57,1374.09 295.02,1374.09 "/>
   <path class="fil3" d="M393.09 1462.05l17.83 -56.19 0.81 0 17.01 56.19 -35.65 0zm1.61 -87.96l-50.24 141.71 30.8 0 9.73 -29.32 51.87 0 8.92 29.32 32.42 0 -49.44 -141.71 -34.04 0z"/>
   <polygon class="fil3" points="551.94,1481.59 521.14,1374.09 489.53,1374.09 537.35,1515.8 565.71,1515.8 613.53,1374.09 582.73,1374.09 "/>
   <path class="fil3" d="M673.51 1462.05l18.64 -56.19 17.83 56.19 -36.47 0zm1.62 -87.96l-50.25 141.71 31.61 0 9.73 -29.32 51.87 0 8.92 29.32 32.41 0 -50.25 -141.71 -34.04 0z"/>
   <polygon class="fil3" points="811.28,1374.09 782.11,1374.09 782.11,1515.8 881.8,1515.8 881.8,1489.74 811.28,1489.74 "/>
   <path class="fil3" d="M1099.01 1435.17l-34.04 -8.96c-5.68,-1.62 -14.58,-3.26 -14.58,-14.66 0,-13.03 12.97,-17.11 24.31,-17.11 25.94,0 28.37,15.47 29.18,21.17l27.55 0c0,-17.1 -11.35,-45.6 -54.29,-45.6 -46.2,0 -54.31,27.69 -54.31,43.98 0,30.95 21.88,35.83 44.57,41.54l15.4 3.25c14.58,4.08 25.12,6.51 25.12,17.92 0,14.66 -15.4,17.91 -29.18,17.91 -25.93,0 -29.98,-14.66 -29.98,-22.8l-28.37 0c0,17.91 8.92,47.24 59.98,47.24 12.96,0 55.92,-3.26 55.92,-46.42 0,-25.25 -17.84,-33.39 -37.29,-37.47z"/>
   <polygon class="fil3" points="1191.4,1453.9 1260.29,1453.9 1260.29,1428.66 1191.4,1428.66 1191.4,1399.34 1266.78,1399.34 1266.78,1374.09 1163.04,1374.09 1163.04,1515.8 1270.01,1515.8 1270.01,1490.55 1191.4,1490.55 "/>
   <path class="fil3" d="M1335.67 1462.05l17.83 -56.19 0.81 0 17.02 56.19 -35.66 0zm1.62 -87.96l-50.24 141.71 30.8 0 9.72 -29.32 51.87 0 9.73 29.32 31.61 0 -49.44 -141.71 -34.05 0z"/>
   <path class="fil3" d="M1614.47 1519.06c1.35,0 3.22,-0.07 5.26,-0.2 16.23,-1.04 50.67,-7.87 50.67,-46.22 0,-25.25 -17.84,-33.39 -37.29,-37.47l-34.03 -8.96c-5.68,-1.62 -15.4,-3.26 -15.4,-14.66 0,-13.03 13.78,-17.11 25.12,-17.11 25.12,0 27.55,15.47 28.37,21.17l28.36 0c0,-17.1 -11.35,-45.6 -55.11,-45.6 -45.39,0 -54.31,27.69 -54.31,43.98 0,30.95 22.69,35.83 45.38,41.54l14.59 3.25c15.4,4.08 25.94,6.51 25.94,17.92 0,14.66 -15.4,17.91 -29.18,17.91 -25.94,0 -29.99,-14.66 -29.99,-22.8l-28.37 0c0,0.2 0.04,0.46 0.04,0.67 0.21,17.96 9.46,46.57 59.93,46.57z"/>
   <polygon class="fil3" points="1749.01,1435.17 1719.83,1374.09 1684.98,1374.09 1733.62,1462.05 1733.62,1515.8 1762.79,1515.8 1762.79,1462.87 1809.79,1374.09 1776.57,1374.09 "/>
   <path class="fil3" d="M1903.81 1435.17l-34.84 -8.96c-5.67,-1.62 -14.59,-3.26 -14.59,-14.66 0,-13.03 12.97,-17.11 24.32,-17.11 25.94,0 28.36,15.47 29.18,21.17l28.36 0c-0.81,-17.1 -12.15,-45.6 -55.11,-45.6 -46.2,0 -54.3,27.69 -54.3,43.98 0,30.95 21.88,35.83 44.57,41.54l15.4 3.25c14.58,4.08 25.12,6.51 25.12,17.92 0,14.66 -15.4,17.91 -29.18,17.91 -25.94,0 -29.98,-14.66 -29.98,-22.8l-28.37 0c0,17.91 8.92,47.24 60.79,47.24 12.16,0 55.11,-3.26 55.11,-46.42 0,-25.25 -17.83,-33.39 -36.48,-37.47z"/>
   <polygon class="fil3" points="1954.87,1399.34 1997.02,1399.34 1997.02,1515.8 2027,1515.8 2027,1399.34 2069.15,1399.34 2069.15,1374.09 1954.87,1374.09 "/>
   <polygon class="fil3" points="2120.22,1453.9 2189.1,1453.9 2189.1,1428.66 2120.22,1428.66 2120.22,1399.34 2194.78,1399.34 2194.78,1374.09 2091.03,1374.09 2091.03,1515.8 2198.02,1515.8 2198.02,1490.55 2120.22,1490.55 "/>
   <polygon class="fil3" points="2293.65,1485.67 2267.71,1374.09 2224.77,1374.09 2224.77,1515.8 2252.33,1515.8 2252.33,1396.9 2253.12,1396.9 2278.25,1515.8 2307.43,1515.8 2334.17,1396.9 2334.17,1515.8 2361.74,1515.8 2361.74,1374.09 2318.77,1374.09 "/>
   <path class="fil3" d="M2466.29 1435.17l-34.86 -8.96c-5.66,-1.62 -14.58,-3.26 -14.58,-14.66 0,-13.03 12.96,-17.11 24.32,-17.11 25.93,0 28.36,15.47 29.17,21.17l27.56 0c0,-17.1 -11.34,-45.6 -54.3,-45.6 -46.21,0 -54.31,27.69 -54.31,43.98 0,30.95 21.88,35.83 44.59,41.54l15.4 3.25c14.58,4.08 25.12,6.51 25.12,17.92 0,14.66 -15.4,17.91 -29.18,17.91 -25.92,0 -29.98,-14.66 -29.98,-22.8l-28.36 0c0,17.91 8.92,47.24 60.78,47.24 12.16,0 55.1,-3.26 55.1,-46.42 0,-25.25 -17.82,-33.39 -36.46,-37.47z"/>
   <path class="fil3" d="M2706.17 1396.08c24.32,0 28.38,15.47 30.8,24.43l29.18 0c-0.8,-21.18 -18.65,-50.49 -60.78,-50.49 -35.67,0 -64.85,25.25 -64.85,74.93 0,48.86 27.56,74.11 64.85,74.11 34.84,0 55.13,-21.18 60.78,-52.12l-29.18 0c-3.24,17.1 -14.58,26.88 -30.8,26.88 -25.12,0 -35.64,-22.81 -35.64,-48.86 0,-39.9 21.06,-48.87 35.64,-48.87z"/>
   <path class="fil3" d="M2854.51 1494.62c-16.22,0 -38.11,-10.59 -38.11,-49.67 0,-39.9 21.88,-49.68 38.11,-49.68 16.2,0 38.08,9.78 38.08,49.68 0,39.09 -21.88,49.67 -38.08,49.67zm0 -124.6c-18.65,0 -68.09,8.14 -68.09,74.93 0,65.96 49.44,74.11 68.09,74.11 18.64,0 68.07,-8.14 68.07,-74.11 0,-66.78 -49.43,-74.93 -68.07,-74.93z"/>
   <polygon class="fil3" points="3017.4,1485.67 2991.48,1374.09 2948.51,1374.09 2948.51,1515.8 2976.08,1515.8 2976.08,1396.9 2976.88,1396.9 3002,1515.8 3031.18,1515.8 3057.13,1396.9 3057.93,1396.9 3057.93,1515.8 3085.49,1515.8 3085.49,1374.09 3042.53,1374.09 "/>
   <polygon class="fil3" points="3185.18,1485.67 3159.24,1374.09 3116.29,1374.09 3116.29,1515.8 3143.84,1515.8 3143.84,1396.9 3144.66,1396.9 3169.78,1515.8 3198.96,1515.8 3225.71,1396.9 3225.71,1515.8 3253.25,1515.8 3253.25,1374.09 3210.31,1374.09 "/>
   <path class="fil3" d="M3323.78 1462.05l17.82 -56.19 17.85 56.19 -35.66 0zm1.61 -87.96l-50.26 141.71 30.8 0 9.72 -29.32 51.88 0 8.9 29.32 32.42 0 -50.25 -141.71 -33.22 0z"/>
   <polygon class="fil3" points="3517.48,1472.64 3461.55,1374.09 3429.92,1374.09 3429.92,1515.8 3457.49,1515.8 3457.49,1414.81 3458.31,1414.81 3515.85,1515.8 3545.02,1515.8 3545.02,1374.09 3517.48,1374.09 "/>
   <path class="fil3" d="M3634.98 1491.37l-28.36 0 0 -92.84 28.36 0c12.17,0 32.43,3.25 32.43,44.79 0,23.62 -8.1,48.05 -32.43,48.05zm4.87 -117.28l-62.41 0 0 141.71 60.78 0c47.01,0 59.17,-43.98 59.17,-74.11 0,-26.88 -10.52,-67.6 -57.55,-67.6z"/>
  </g>
 </g>
</svg>
