<?xml version="1.0" encoding="UTF-8"?>
<!DOCTYPE svg PUBLIC "-//W3C//DTD SVG 1.1//EN" "http://www.w3.org/Graphics/SVG/1.1/DTD/svg11.dtd">
<!-- Creator: CorelDRAW 2019 (64-Bit Not for commercial use) -->
<svg xmlns="http://www.w3.org/2000/svg" xml:space="preserve" width="5in" height="5in" version="1.1" style="shape-rendering:geometricPrecision; text-rendering:geometricPrecision; image-rendering:optimizeQuality; fill-rule:evenodd; clip-rule:evenodd"
viewBox="0 0 5000 5000"
 xmlns:xlink="http://www.w3.org/1999/xlink"
 xmlns:xodm="http://www.corel.com/coreldraw/odm/2003">
 <defs>
  <style type="text/css">
   <![CDATA[
    .fil0 {fill:#ED3237}
   ]]>
  </style>
 </defs>
 <g id="Layer_x0020_1">
  <metadata id="CorelCorpID_0Corel-Layer"/>
  <g id="_1630447842176">
   <path class="fil0" d="M407.69 2537.5c5.59,11.93 12.32,12.37 26.76,14.51 51.01,7.55 185.02,-11.26 251.17,24.94 76.65,41.95 -9.36,133.61 -48.74,173.21 -25.53,25.67 -81.94,63.96 -116.67,82.91 -17.4,9.49 -34.35,17.9 -55.6,23.44 -39.73,10.37 -33.65,-10.26 -24.16,-35.2 27.02,-70.97 119.21,-196.75 99.74,-214.43 -26.93,-13.25 -67.7,52.61 -78.74,69.12 -20.22,30.22 -40.74,57.49 -60.33,88.74 -15.33,24.46 -110.89,174.2 -98.08,197.39 3.29,2.56 0.55,1.46 6.34,3.18 7.91,2.35 -3.48,-0.05 5.03,1.04 3.12,0.4 8.15,0.08 11.37,-0.13 7.46,-0.5 13.53,-1.53 20.76,-2.99 139.8,-28.27 342.4,-139.69 423.26,-251.94 17.32,-24.04 58.74,-89.45 47.18,-132.72 -22.98,-86.02 -197.99,-90.63 -271.13,-82.2 -28.56,3.3 -127.15,13.56 -138.15,41.13z"/>
   <path class="fil0" d="M1040.47 2368.08c-87.67,0 -203.61,34.67 -164.1,133.93 21.03,52.83 95.73,131.78 134.28,177.9 89.08,106.57 50.06,122.72 -88.43,129.24 -49.02,2.31 -105.68,1.22 -152.27,6.82 -34.5,4.15 -38.88,22.43 -9.29,31.98 18.78,6.06 44.85,8.82 64.93,11.29 88.09,10.83 203.09,21.74 280.43,-11.67 32.6,-14.08 67.84,-44.54 58.72,-93.56 -9.37,-50.41 -94.49,-145.59 -129.8,-182.81 -14.83,-15.63 -56.96,-64.23 -59.66,-95.65 -6.73,-78.52 188.01,-29.84 248.69,-60.89 -0.33,-19.03 -9.89,-21.74 -27.64,-27.38 -39.92,-12.66 -113.87,-19.2 -155.85,-19.2z"/>
   <path class="fil0" d="M2660.96 2801.4c-0.72,-36.2 32.52,-158.2 34.23,-201.34 -15.99,-0.92 -32.09,-0.39 -48.11,-0.52 -42.47,-0.35 -32.17,8.14 -48.5,97.19l-28.93 163.06c63.83,4.26 195.36,4.69 245.7,-16.49 61.28,-25.78 97.85,-75.83 114.96,-151.57 19.38,-85.79 1.96,-156.35 -70.19,-181.21 -36.81,-12.68 -80.8,-9.89 -122.95,-9.89 -37.85,0 -98.87,-3.61 -133.94,0.85 -5.65,31.02 -2.83,54.01 27.22,57.23 95.72,10.26 207.88,-31.56 218.15,61.07 5.57,50.31 -14.44,113.02 -39.33,144.53 -35.37,44.77 -80.39,39.04 -148.33,37.1z"/>
   <path class="fil0" d="M1992.39 2666.93c-7.26,69.04 -30.15,128.36 -91.61,143.07 -81.36,19.48 -128.78,-16.63 -121.29,-102.72 14.68,-168.54 146.68,-157.98 187.46,-128.35 23.52,17.09 29.35,50.9 25.44,87.99zm-107.1 -163.8c-105.08,16.74 -168.37,81.51 -183.48,192.04 -17.44,127.56 58.88,194.32 186.7,178.22 105.06,-13.24 166.2,-88.39 181.7,-192.38 18.37,-123.27 -60.12,-197.76 -184.92,-177.88z"/>
   <path class="fil0" d="M1385.05 2859.79c40.69,2.72 135.68,3.72 173.84,-0.54 50.7,-5.66 86.28,-38.44 91.36,-88.37 6.39,-62.76 -33.97,-83.31 -69.08,-107.23 -19.16,-13.06 -33.91,-24.07 -52.58,-37.46 -55.84,-40.07 -71.7,-52.85 12.74,-52.81 22.51,0.01 45.02,-0 67.53,0 23.11,0.01 44.27,4.59 56.2,-10.57 11.78,-14.95 10.66,-39.43 9.11,-62.17 -40.43,0.55 -81.13,0.1 -121.59,0.1 -38.77,0 -79.15,-5.22 -107.99,15.97 -21.43,15.74 -41.15,46.89 -37.85,85.19 3.24,37.65 27.52,56.15 51.06,72.7l108.99 76.62c14.66,13.41 9.92,30.72 -10.28,34.89 -60.53,12.5 -157.73,-15.8 -170.22,15.57 -4.03,10.12 -3.6,45.41 -1.24,58.11z"/>
   <path class="fil0" d="M611.44 2106.99c20.97,33.48 152.32,-5.52 248.38,39.87 87.9,41.54 -83.93,183.48 -119.78,211.2 -23.41,18.1 -61.3,45.5 -79.6,63.92 -8.61,8.66 -20.33,13.65 -15.85,30.24 37.2,9.25 131.56,-51.67 157.29,-68.92 48.06,-32.2 90.11,-67.2 123.33,-104.56 25.47,-28.64 83.04,-106.09 43.17,-158.73 -29.47,-38.89 -114.44,-54.77 -175.53,-54.77 -40.48,0 -127.13,10.79 -166.27,27.75 -11.35,4.92 -11.91,4.61 -15.14,13.99z"/>
   <path class="fil0" d="M3001.6 2861.3c62.59,3.09 60.54,-5.56 99.77,-77.97 9.65,-17.82 21.97,-39.73 32.07,-57.79 6.52,-11.65 25.54,-51.19 34.51,-56.04l39.05 191.84c61.13,2.98 58.19,-15.19 78.39,-59.88l107.23 -241.54c11.36,-24.24 28.41,-51.91 4.77,-57.41 -6.1,-1.42 -12.54,-0.63 -18.65,-0.18 -9.85,10.75 -59.46,132.39 -70.18,156.01 -10.21,22.5 -63.22,148.43 -70.51,156.33 -5.99,-8.8 -29.98,-144.53 -37.68,-169.36 -7.36,-23.72 -25.99,-19.81 -50.52,-20.87l-109.02 188.61 -0.23 -302.69c-11.83,-10.39 -18.12,-9.44 -37.61,-8.13l-1.39 359.07z"/>
   <path class="fil0" d="M3846.79 2671.59c0.11,-5.4 21.15,-122.72 22.24,-124.81 6.39,-12.31 122.14,-4.13 136.07,0.03 49.57,14.79 36.03,67.1 9.02,94.17 -38.04,38.12 -106.91,32.04 -167.34,30.61zm-72.99 190.74l38.55 -0.51 27.78 -154.71 69.82 0.19 90.04 154.38c55.24,2.71 37.43,-16.26 -2.36,-82.09 -5.75,-9.52 -40.95,-65.98 -40.66,-74.4 65.84,-8.61 119.5,-49.28 119.5,-119.86 0,-101.57 -128.41,-83.55 -230.59,-83.55 -11.31,0 -18.39,64.37 -22.06,84.1 -8.15,43.81 -48.44,250.31 -50,276.45z"/>
   <path class="fil0" d="M3583.19 2540.91c89.85,-18.76 141.93,55.95 123.66,144.43 -16.31,78.96 -56.24,139.91 -132,152.38 -97.44,16.04 -147.71,-52.96 -128.72,-148.35 15.82,-79.44 57.42,-131.82 137.06,-148.46zm-180.1 190.75c0,114.07 96.59,172.53 208.33,134.01 75.65,-26.08 140.34,-115.49 137.79,-221.23 -4.2,-174.38 -219.37,-190.27 -304.37,-52.1 -22.41,36.42 -41.75,85.33 -41.75,139.32z"/>
   <path class="fil0" d="M2096.63 2859.79l241.14 0.71c12.09,-1.17 10.13,-2.68 12.48,-15.44 1.22,-6.61 4.01,-19.09 3.86,-26.24 -0.45,-23.24 -23.89,-17.27 -44.62,-17.22 -39.32,0.08 -85.03,2.07 -123.59,-0.47l26.02 -147.04c4.52,-24.26 27.37,-133.83 23.85,-149.49 -14.63,-7.94 -55.42,-4.23 -76.01,-3.66 -7.44,49.59 -65.35,342.05 -63.13,358.85z"/>
   <path class="fil0" d="M4108.91 2861.68l38 -0.24 28.93 -156.04c12.85,6.52 98.14,103.18 109.27,115.94 11.7,13.42 26.48,25.66 35.65,40.34 11.63,0.46 22.87,0.09 31.45,-3.5 6.22,-21.66 -10.26,-29.06 -26.01,-46.91 -12.56,-14.23 -25.06,-27.24 -37.44,-41.38 -6.52,-7.44 -12.65,-12.52 -19.44,-19.96l-56.92 -63.29c6.32,-10.46 36.71,-32.58 48.51,-43.61 14.98,-14 33.69,-28.48 50.36,-42.44 17.71,-14.83 32,-27.94 49.9,-42.93 31.16,-26.1 43.8,-28.77 37.13,-52.07 -32.74,-10.18 -49.11,12.36 -85.58,45.78 -7.63,6.99 -17.5,15.21 -25.91,21.95 -16.96,13.6 -32.87,27.72 -48.52,41.53 -10.46,9.24 -42.25,38.93 -52.87,42.52 16.06,-121.32 44.76,-155.57 -4.76,-155.57 -10.79,0 -18.69,66.2 -21.91,84.11 -5.53,30.78 -10.43,59.09 -16.62,90.68 -5.77,29.44 -11.09,59.96 -16.72,89.68 -4.95,26.11 -15.67,69.19 -16.5,95.43z"/>
   <path class="fil0" d="M4412.96 2862.33c35.53,-1.25 72.52,-0.35 108.17,-0.31 38.06,0.04 68.68,3.64 91.47,-19.21 17.39,-17.44 29.57,-50.96 21.03,-83.08 -15.83,-59.57 -149.31,-135.03 -146.19,-182.6 2.72,-41.42 50.59,-36.51 73.08,-36.48 19.19,0.03 96.02,3.6 106.37,-3.24 9.09,-7.2 7.5,-21.09 4.89,-35.19 -34.79,-2.33 -75.78,-0.43 -111.25,-0.44 -38.67,-0.01 -72.28,-1.2 -92.91,21.68 -17.17,19.04 -26.74,61.11 -13.65,89.81 29.19,64 176.45,136.95 135.83,192.61 -17.9,24.54 -61.39,17.67 -96.8,17.65 -93.09,-0.05 -80.03,-4.58 -80.03,38.8z"/>
   <path class="fil0" d="M2395.83 2859.41l78 0.73c6.51,-17.72 13.15,-66.14 16.98,-87.61 7.97,-44.64 49.98,-254.74 44.75,-269.77 -17.5,-4.53 -50.47,-2.14 -71.31,-2.14 -7.31,2.11 -9.3,29.4 -11.6,42.61 -2.74,15.77 -5.3,29.35 -8.13,44.58 -6.26,33.71 -49.05,258.22 -48.69,271.6z"/>
  </g>
 </g>
</svg>
